<mxfile host="app.diagrams.net" modified="2024-04-02T06:44:32.122Z" agent="Mozilla/5.0 (Windows NT 10.0; Win64; x64) AppleWebKit/537.36 (KHTML, like Gecko) Chrome/123.0.0.0 Safari/537.36" etag="WLTygtaVYEEjpQ3PxQm5" version="24.2.1" type="device">
  <diagram name="페이지-1" id="vGupk36aVWgH0yF05qzA">
    <mxGraphModel dx="924" dy="744" grid="1" gridSize="10" guides="1" tooltips="1" connect="1" arrows="1" fold="1" page="1" pageScale="1" pageWidth="827" pageHeight="1169" math="0" shadow="0">
      <root>
        <mxCell id="0" />
        <mxCell id="1" parent="0" />
        <mxCell id="aRsgU26TpFkdN7H3gEH3-1" value="" style="shape=image;verticalLabelPosition=bottom;labelBackgroundColor=default;verticalAlign=top;aspect=fixed;imageAspect=0;image=data:image/png,iVBORw0KGgoAAAANSUhEUgAAAfYAAAB/CAYAAAAdI+AYAAAAAXNSR0IArs4c6QAAAARnQU1BAACxjwv8YQUAAAAJcEhZcwAADsMAAA7DAcdvqGQAAByISURBVHhe7Z29rtw40obPRdmAO518L2Ai4wDjvoQFNlknDhz53MKkTpy5r8KJgYl8kklONBgs5hvsDObHq49FsahiqaifltjNlt4HeNFikRKLP2KJ6rbP3X/+83/Nf//7OwRBEARBG5AP7N9//z0EQRAEQTcsJgb2X375paguUQcEQRAE7VVMEthLIp8mtsTT01M4AmtSe7/CP1ArGPt9IscdgX0huInKgMC5DMzL/YKx3ydy3BHYF4KbqAwInMvAvNwvGPt9IscdgX0huInKgMC5DMzL/YKx3ydy3G87sD8+NIfDQ/MYkpGcvQC4icqwer/ynFhpbtQ+7sX8Ox2bu7s7r+Mp2KZwwXty72BN2idy3OsI7HTTh8Wi07E5jS0GufwLLiL5m+ixeTjoNrU6PGB5G2NwcQrzJenHqXNlpbkx6p+sIwTDWYFwIVP6T87Jab6dmuPdoTlr+so+WWkMgM3csb8bG1OM100gx72ewH7OxMmdd8GJOHgTMbgxZjMeOI/N8SAWpLE+5vyVxmLcv1AHHZ8bDBcw2T/C+zghuPty7oE7JGeh+2SFMQA2s8Z+Chivm0COe92BXS8G+gkzm+90oYk4eBMxvfa1u/luIQ07oROVo4DVtSOWsdq/YSYtTrQT5g5im+5rbdf5ZzLJP/rUY+Vtehwz82GBk7MXd2kzfSSf2Obkyp4eDl2ay+lrczra0zdZeHu1PrPH3tOObxwPPwdoTNV4HY/+/IcjpduHvEdrHoCLI8f9Rl7F06QTOwW2J/kqCJqTd30GbyLG8kcGJT6mcvLG8K9wqd2Z9ofkFpm6OJ3cAuO7kW26b7Rd55/JuH+HdCw9A+NozYcFzF/c2bcBH4f6Ts5hWYbTU68DFjM69nqtlePix56CuZi7euzkWqtZYe6C85Djfhs79jCZkslIE1Dmy/Nz1yvA4E3EmP50C2gvOPl8gsq4G4x28lb7Q6ktMjkw8bH+9AUdY/lnMr54unF7cIuc9iU7jsZ8WMDk/ouE+od81Ofpslb/clradRmwKvPHvoN339nfr1jnk03Pg5AFLocc99sJ7HPyc+ULMHgTMRl/2gVc7JB65URgv1B7amHO4kSL0fEh2HJzQX+G7HOZ6p9fKDlKj9Tdmw8LmL24T+kfmUfH8o1E7nzLrsuAVZk99hL/lnBGYKe0NQ9CElwOOe438h07LXbGLibJ7yaXX0wvNLkGbyJmqH3yJtLl6CYbav+Gmbc4tf0Td4wiMMa5wOf0zj2P6f6131G2Yzwyjt53taieyTn91/o14KM8T10j6eeh/m+NSRmwLvPGXkJjT+NCnypY83jp81X6kmsvSJHjfqM/nhOLOOeHJ03/tBl+4HGJyTV4EzG59jlL77ss2Ua5+FntD1lbZPbiFB+CKNstLqGf4lzgc7JjMY9zAqcP2IPjqObDAkb9kz7IRZzI+ajaRW8YuIy85wb7vz01nrvGQwxImTf2JBp/9UDn19Nu/YnjZaytuXkALosc9zoC+w0zeBONIYKRRy1+e2ZRv16AIv7p+bCA2vsPlANjv0/kuCOwL2TJTdR+pxoSBAJ7pPbFqYR/vfmwACzu+wVjv0/kuCOwLwQ3URlq71f4B2oFY79P5LgjsC8EN1EZEDiXgXm5XzD2+0SOOwL7QnATlQGBcxmYl/sFY79P5LjHwA5BEARB0O2KwY4dgI3y+vXrIgIA1A0COwAbxQrKawgAUDcI7ABsFBmI9TF/5mxWWtoBAPWCwA7ARtGBmI/lZ85mpaUdAFAvg4H9t99+a37//ffm69evwXI+COwAXBYZiGVAljadzzYrLe0AgHoZDezfffdd89NPPzV///13sJ7HLgL7lP85Dv+73HzC/2+d/L/iqh/l/0/u/8/qS/4f5MG/rn7xBzMSe+7vAoi/CbAiMhDrY/7M2ay0tIMNo+6tWSw59xrcmr8TGQ3s33zzzSrBHTv2wEYnUlF8nx2bo/6DOaEf+39RSvzRlUugx5T/z3dtp7T+wz6J3+siA3HumNBpwkpb5cAGKTwvq2KjbZ0U2Enffvtt88MPPzR//vlnyJ1HEthDZz6IvwoU/49sv/iV3ckUgydJtn3tn/BkG/6y1US4Xylg8kRhmw/ixl9Ei/kXoFcX+eTmbs4eUqV9lMF4TYHbIn2bFe4VPfdi2lijKC+eP7Im83XCp7nG+/tA2B9k2XD9pE7pMz3gh/NOna92/Ejbuqf1eHJgJ/3jH//wwf2PP/4IJabTC+yxcx3xr1q1A96t3W5CdrOhfsIE8pPabJ+Dy/gMMAnRZ/EPpci+NvtTBdGSKB/iGwTtm/7rbVnf18EKymsI3DD8cKznnkwneTPXZD6XPs01sA2mySV0WX3vJtcMwZquJ4/9tYfOs3xxcBmfsR1mBXYO7vRafu7O3dqxx86UA6Dtl1qc12CoHZzWeWAcq//0py8ouXBgdwsHP/kni4ZlZ7K+A7Ai1jzUc0+mc8eEv9bAfcXlrfMsO2GVlf56uTplOet4ynlE7job4no7dqujLTsCO1B9RrsGfn1X56v4gB53PZcv6SPYJ37eifuD55yeezKdOyYofYnArssQ0m4dTzmPyF1nQ0wO7EuCOjEpsPtFesZrn9rgdmTbF45v6WGlBnR/hnnCO+D46rvNdLT5V/vxHKPt/vWhGPvceQCshZpjyddEYi4m91CSN3NN5vr03I7pzKt4WVbVGZHlzOMJ5xH63A2ux5MCO/0q/scff2z++uuvkDOfaYE9HNOi7XVjHc7tGGqfg74npvbhx3MT0f1JyO/JHH7BifPGuLlLYvlHGPbWT7eDOrm86O/2FhZQD7zekA7HY5yT8p6RdiJZo2geh3Kjc5XnvJ77Mp1cz92r8e2bQJWJDyPyGrnjofMIld7iejwa2PHv2AEAAIDbYTSwrxHUCQR2AADYCuHrsJ6M37uAizMY2NcEgR0AAAAoTxLYn56eigmBHQAAACjPRXfsP//6dXMiLDu0TLX36y34989//buIrPqgekRYdmjbkiCwLxRh2aFlqr1fb8E/KyivIas+qB4Rlh3atiQI7AtFWHZomWrv11vwjwPxb3/8r3c8ZrPSLKs+qB4Rlh3atiQI7AtFWHZomWrv11vwjwMxBWgdvGXQtmxWmmXVB9UjwrJD25ak7sD++V3z7Pm75pOVV4kIy76aVuuDL82b53fN3f1HI29AH141d3cvmjefjbyCKt6vC3UL/nEgloHbCuKWzUqzrPqgekRYdmjbklwvsMuANeW4UhGWfTWt1Aef3r4QQf1j8zL5t6ccuKX9VfOez6fgfuFxSPqV+sD59Oztl9QmfPLti76rsgWU+FehCA7EY0HcsllpllUfVI8Iyw5tW5I6AnvOvlJQKynCsq+mVfqAArbcdVNaBO6g9/d3zcsP7XH6INDu9jnvEkr61ffBq+blc9EG0S/e16SP2geUksE98a9CERyIrSDOx1aabTrNsuqD6hFh2aFtS3KlwB5eC/Pu6v5VWKRzdncOLeTBfo1XwzkRMe19lAGzC6DpjjL4H4LTGxdQux2y3DW7YPpWlgk2GXxj2YFr9nbcVmBXNhE4ua7Su2CpXr+SL9QOftiI/pHfxnxQ/q+txL8KRchgvKas+qB6RFh2aNuS3Mir+OGgc00RMi13vT6gWt9ps53aIQK1uTPWZXKvxbPXtIJy+vDQ5ulgr9K5thRS0q9ivGP/sk3kyfPth5f1lPhXoQgrKK8hqz6oHhGWHdq2JLcR2OlTBKJW5RbtOSISmwiA7+/Vq2PpP7eL28plZNqyyfSUazoN77YpAJKfI4Hd8q2gkn7VbZbtzPqFwG7Zoe0LY79PSW4nsJuL9/VFpDbadVNAcYFFtkO+Ls61y2pnrgx9Trmm03BgJ3+NwK6vU8mOndLUHv6KAq/ibdXuH1ROGPt9SnLdwM6BRC7Cpp0Wb/WKuhIR2uYDD/0+gIOpCjKUb++uM6/iZRlOT76mk35979KxDiof+jv/47k2nX84WF9Jv/ba1M4HblNsu8ov6W/iX4Wq3T+onDD2+5TkeoHdiQIJvUJOfiSXs/sAFF45k5KF/HoienYRLNnGbUraZQVh1c5uZyryQ3ryNfWuVtcRHyRCwPSS/hsPHIWV9KvVJvWw4oO72aYySvyrULX7B5UTxn6fklw1sG9BhGWvTXoHPkt6x38B1d6v8A+qVRj7fUqCwL5QhGWvT+2ue3Zwp6BufYddWLX3K/yDahXGfp+SILAvFGHZoWWqvV/hH1SrMPb7lCQJ7E9PT8VEdQAAAACgLBfdsQMALsfr16+LCABQNwjsAGwUKyivIQBA3SCwA7BRZCDWx/yZs1lpaQcA1AsCOwAbRQdiPpafOZuVlnYAQL3UEdgfH5rD4aF5DMnFnI7xPyo5nlx67etfktV8f2weDq5PfIesgO/jQ/Nwk526D2QglgFZ2nQ+26y0tAMA6uV2AvvkAHdqjhxw+BwEdneZgxHUXV8l16a+4/+97ehSTMZOwf0S/Up94Oo+yKcI1S++fdFHVXanyECsj/kzZ7PS0g4AqJftBXYfBGRQckw9t0ZW8V087ARiIBTXPh3DGw6HfBDI2V3KvwXoPS+sje+Do3sIEW0Q/eJ9SvqofRDZe3CXgTh3TOg0YaWtcgCA+rheYPcBuNth8cKc7rx4IQ+vkYOdFmy7nNxZBtF1ZXBM6k2D3WL8tfVOt02b/ga/Hlzg7HbCaRuOD7JMsIUKJl8zt7OW/SJ89cS8nJ2Th/IBlOukdnSNF/4Z46j83CMyGK8pAEDdXCmwt8Gr2/hlFmFzITfIlePjaBsOUmsgd7eJXxK2U/2yH5wnvR2wLkPnWj5nr0mmTPBN2q/6JqZz9kCujWsi/Iz9y7akDRLt9/6wgvIaAgDUzXUCu16MZZqO/Q40SNr1OWPl+Fh+ynO8Vl78RaA7HcVO0vJX+kroNDFUZso1HUUDu1Hf6ug2y3Zm60dgBwDsk7oCO33K16qynD6eWo6vKz8prxi06w4BUfph+av9sfzLlaHPKdd0nBXYY95IIL/wjr1NHuJXFHgVDwAAKVd8Fd8txrRQW7vNaG8TLpCFADNWTh9HG9WrXnUXwAee47ELpjl/ld3l2K/iZZlem9icu6Yj9/pelZ3/47k2fbHv2EOynT/hDYVLxba3mY42v7hfAABQIdf78RwFm/AK+UBBMCzMFEQsO8F5tGBny8kgwMfaFs7zEtdfDV9H+hrY9Ff6xSj/up1pQJwz+Zo+0KW7Wh8MZT3e2RAwvaT/OfslfxWv2qQeVuz2AADA/rheYAcXRe+0VyH3JgAAAMDVQGDfDeGfDK4V3P0bF+O7bQAAAFcFgR0AAADYEElgf3p6KiYEdgAAAKA8F92x//zr182JsOzQMtXer7fg3z//9e8isuqD6hFh2aFtS4LAvlCEZYeWqfZ+vQX/rKC8hqz6oHpEWHZo25IgsC8UYdmhZaq9X2/BPw7Ev/3xv97xmM1Ks6z6oHpEWHZo25IgsC8UYdmhZaq9X2/BPw7EFKB18JZB27JZaZZVH1SPCMsObVsSBPaFIiz7avr8rnn2/F3zycqbpS/Nm+d3zd39RyNvRX141dzdvWjefDbyZqh4vy7ULfjHgVgGbiuIWzYrzbLqg+oRYdmhbUty24F9adBbIWgSln01rRTYP7190QV1uqb4X9qevf0Syn1sXkb7q+Z9PH+mnYL7mv0a/O38DDZRh29f9EWVLaDEvwpFcCAeC+KWzUqzrPqgekRYdmjbkiCw7yKwUwAWu2gXeF9+6Oe9v7+LdvkgMNfObwe6OuYr6VffB87n56INol983UkftQ8cJYN74l+FIjgQW0Gcj60023SaZdUH1SPCskPbluSKgV3u9kIQoMU62sIOMCzgb1wQScryq+Vg84t4cn4IAnPOT/ybJiKmff16R9um0x2l5Rufp/rlbc7/Gdcc3EFTP9C5na/eHq7zSbRhmr1Nk29LAmuvX+na1A751iH6IQK+PkfaVlTiX4UiZDBeU1Z9UD0iLDu0bUmuFNitHV0b0JKgRYs4LdDCngSpZPHOBJrJ558nQqblLtbXFXexQmzXvln9MuS/VPaaI0E29oHqv5ieaw/pXNsnKulXMU6xf9km8uT5PX9WVuJfhSKsoLyGrPqgekRYdmjbklwnsFuLsbZRmhZmy85pfewCWreDDTvWqeefKSKxiYD2/l7sJLV/VO+QbzmbTE+5plM+sFPwYx9zgXquPaSttsxQ0q+6zbKd2Xq0f+sq8a9C1e4fVE4Y+31Ksq3Arq9p2aecM0NEaqNddwh8sh75upjrHfItZ5PnTrmmkx3YKfDJV9i5wDzXHtKFduyUpvbwVxR4FW+rdv+gcsLY71OS23gVLxdomabjGFzS86Mmn3+eCG3zgef+VRdMlQ++bZTWvuVexVv+T76mk359T2WMYLjej+fa9Orfscf8dqy5TbHtKn9J/WNK/KtQtfsHlRPGfp+SXO/Hcz64dK+RfYBIbCHg6kVdpSm4UHm/iKtrmoFu6HwuM0NEz+79SB8YuB5fFwV9yzeSakO3MxX5IT35mmpX6wOhqMOf79sfAqaX9H+u3Xpwm6ekX602qYcV3aYldU9R4l+Fqt0/qJww9vuU5HqBfSMiLHtt0jvqotJvCM5Q7f0K/6BahbHfpyQI7AtFWPb61O6iiwd3CurWd94zVXu/wj+oVmHs9ykJAvtCEZYdWqba+xX+QbUKY79PSZLA/vT0VExUBwAAAADKctEdOwAAAADKgsAOAAAAbAgEdgAAAGBDILADAAAAG+L2A/vjQ3M4PDSPIVkVNfsGAABgk+wjsF8rwK7pmyx3rfZci9OxuZPtpfbfHZqHE312/9tcK2engr5MZz94486hfhR9cnc82XOJbaoPY99ymcl5IT+MVzIWvq5jczzo8q3scXtsHnLlj0dR97E5sS/UVsHp6GxmG0m5OXTK19s1vi3Tm6/ONtkH53cosxijfdGNXNvN+0r6lGmjTBNs6+UNjJ853h2PD4d++ZF29Oeb1efpOYmt55Ju/9T5yLL7WE2PRSCwl2RN367VhkqgRZAnPh3HG9rsk1NzTG5Il17zrrlB2gUxDRgnt+j4wKf7kG06j9J8jTl5jLdTEBdjY13HOjeHVV7asnUe2jLZ+kbmUO68bH0zfNAPskvQ16Y0BxGdx+TsjM8fGUeCbUPXG6tL4OdwUtYF1OPA9b094+fgOcJOaf2gZV2Xsc6fXM96wf06gT006oGeWOViEJ9eug5LntC4I5KynT19muNrpE9T/Sc8Y3CWUMQ3VY6eAum6VNZPsNZ+PHXl4gQp2dZL4tsa2jwWQPyirG7GXUPzIjP2Vh/Kvk7yRL/OyguwnQIXT1BdNnduDqu8tIXjk7v/eOfmHxIfQplsfSNzKHMe3edUT3z4bI0zfVhx/lp+si3ThlzbmKE2zqqHGKmrg/pkxhwm2G7Nt7FzQtIaC7P9jD5/cj2OXNkzuF5gl8FHdx430Jfr7H6H4cuqwGV1RnbxyNQVksso6Jt1TJ882ema8tiXLdnWy+NvJBegkv6NDy1BoX1U1qdj4R3j+0nMA4k1J9im8+K8cozlWeMizvGBjRzS19HpMazy0haPw73Aaflp+epOHZxDso6IeIAy+2rAB3EtvwkQ6UWYfgo/rLZb9jh/xtooYJvpQ2AoTzJ2De2vqrc33yac45Ft9GTaz+jzp9bjUev1Aq66Yx9svG8gNZSPA9a5nNbXkfZcGa91OrOob7ocHVs2nZ+73i0i20jotAXdfNTuPQf4oX6y8thGn3Lu6L4fyrPqk3ZZx5Rzc1jlrXrcIQfq3gI/Vp81h8bq9WtXCABTfOB+JI35MwfLT++bWwfMPEfOTiR5dhsjbJt8vQGSct2bSd9XuWtIOx/rT19QQPahsUjOE+1n9HWH6unZw7iE1BLqCexW4yPUYOpoYzJymj5lJ8tyueO10dfmNH0u9c0qN3YdadsCuj2T27feDXObGAsQY/WhNX/oWPbh1DyJstPONL6ODrbsuTms8tKmj9lPtlvnm6g5ZJznd9oyKDj5V7Wr+XAG1rXH6h3wZ1IbmbF6iKG8BGMOj11f2ZP5NuUcOpZj7si2n9HXnVIPkyt7BnUEdj9o4hU248odY6fxK5B0gH1H07XUNaO9TYgBytS1CgV9k+X4evK65nHJtl4B2UZCpxmyy0bnyu2IdkFKF6nuq610wfRlqf90v/mdq5qDPsMxlMf07O38THZFc8fKKi9tY74M5Q/Nod557S4yudf4Ve1QHUP5a9C7tlgTxvwKyY6BNs6ZR5IZbU/WTYLPndwOMd+mniPntbPm2x/Q58/0Lbn2AioJ7A6yUaezfH4YiKD4ZOQ7O9j4h2TeLMoKO8F58ekylPPSviyhoG+xHJ8v+3HoOHO9m0O2i9Bt86LFRbyqi7Zwzo5pg7voF15FcnNE97ejvYbrT/rnOkN58npe9jn+ftFjqssMMTgn3IKcux7bk/KsCXPIqrdXTwh2VrsJ6YOVvwa99ol29PJC/pi/IdkiArq+Hpft1cOB0mFeM4+ew+aa6ZVpB8+3GecMzfmk/YRuz1A92pZeeBHXCewAAAAAKAICOwCgYtK3dqV2OKAWMN5rgMAOAAAAbIgksD89PRUTAjsAAABQnovu2H/+9evmRFh2aJlq71f4B9UqjP0+JUFgXyjCskPLVHu/wj+oVmHs9ykJAvtCEZYdWqba+xX+QbUKY79PSRDYF4qw7NAy1d6v8A+qVRj7fUqyn8D++V3z7Pm75pOVt0CEZYeWqfZ+hX9QrcLY71OSugL7UPCVeecE6UsE9il1FPJja0r69cOr5k72GfXh3YvmzQf61P/e1dk/c5nO/uztl+56Kyjxr0L1/fvYvIz98ap5n+RBW1J/7KE9SHKbO/ZzgmOhgEpY9qwQ2CdJ9+v7+7vm5Yfu2AfqbF9SEAsBntP3H0X+cmn/apP2T/bfp7cvmruV+wOqR3rsoX1Icp3A7ndTctdAC7FLi4XaLz68wyBbzPvSvHnOOw+xwHNZuaAndqcCAZWIafYxfL5xiynX3S6qhu/iWlCnpF9Jsm957rBNlvMK86lnX089/ypT6p/qj2y/QVtQOvbQXiS52o5d7iD8q1baQViLty+bBv10YcotWmQXdSTnrCciprkO+pR1y1fJhfzYmpJ+DfI79ecv0jEND0lRoW+prE8X2pla/tWk1D/9oFP+wQe6ntKxh/YiyfVexXMwd8fv78X3on5hboNy8l2gDIj6WC7sfJ4so89ZUURMcx1DdRfyY2tK+pU11K850TyjObHrV/EI7HtSOvbQXiS54nfs9FqaFhe3yGSDngjwueCYW9y1PVduoYiY5jqG6i7kx9aU9CtrqF8HtX4gM/2rSKl/qv2Yg5tWOvbQXiS56o/n6Hv0l/evuu+aecFxny/j98/0ABB+Ac2LEZWLC1Ub/OPr2Siyd9+3++/sCyxmREwL/5OFU6YT36Gckn5lDfWrFNnlDj1XboFM/yqS9g8/ntuP9NhD+5DkqoG9F+TiAsw79VbWL6D5O9T+j+ecuBy/hqVy9ACx8uJOImKafVS+DvrOZaBESb+yrH7lMY+ih7n0R4rJDypXkulfRer7J+8pPFhuWf2xh/YgyXUD+wZEWHZomWrvV/gH1SqM/T4lQWBfKMKyQ8tUe7/CP6hWYez3KQkC+0IRlh1aptr7Ff5BtQpjv09JksD+9PRUTFQHAAAAAMriAzsAAAAAtgECOwAAALAhENgBAACAzdA0/w+ME3DCeOfDOQAAAABJRU5ErkJggg==;" vertex="1" parent="1">
          <mxGeometry x="70" y="120" width="502" height="127" as="geometry" />
        </mxCell>
        <mxCell id="aRsgU26TpFkdN7H3gEH3-2" value="" style="shape=image;verticalLabelPosition=bottom;labelBackgroundColor=default;verticalAlign=top;aspect=fixed;imageAspect=0;image=data:image/png,iVBORw0KGgoAAAANSUhEUgAAAY8AAACjCAYAAAByg5IeAAAAAXNSR0IArs4c6QAAAARnQU1BAACxjwv8YQUAAAAJcEhZcwAADsMAAA7DAcdvqGQAACGtSURBVHhe7Z2xjtzI0cfnoSRAkzr3AzhaLOCdRzjgklOiQJHmFZxuokz7FEoEONImThwZDowPkHG27/ixml1kdU01mxx2kz2c/w/437CLTbK6SFaxOaedw7/+9a+mlP7yl7+YdgiCIKh+jXHwn0Wg4nEP/P3vf/dLICe1xxX+rQvus3VJxRvFIwO4qMuA5LyMvV2XuM/WJRVvFI8M4KIuA5LzMvZ2XeI+W5dUvFE8MoCLugxIzsvY23WJ+2xdUvG+veLxem6Ox3Pz6ps9MfsK4KIuQ/a48jWS6Vqp/bwX8+/l1BwOB6fTi7dNYWHccZ+tSyre2xUPupD8BTjo1LykLrDY+kwJ4RriQX5tzkc9xk7H8xae3hajF6+/foI4Tr12Ml0rSf/kMXzCnZVsFzIlfvKanObbS3M6HJurLl8ZkyvOwdzxHFJ+XuHDPTEa75Zti8c1Jy623YYXQirIDlyos0kn51NzOooEkYoxr890LtL++WPQ8rUJdwGT/SOcjxMKiOvXPuT55ix0TGaeg1njmcI129wRqbxWX/HQF5h+ioiub7XRhZAKsuNivN2sZLhZ/RPdC/WjpDiMq+9jxWPHTEoW9ETPAWKbjrW26/VXMsk/+tTnytn0eYxcDwucnJ1spc30kXxiW6u278v5OLS5n943t3t7OCOfOgufPR5H53N/DDcu8lP5cDq57c8nanfF8dUa2x2RymsVv7aiky6ecNgerFeJ1bx4ypMKssPyTyY+XqZ+8kJ1rzsoDpF4+OYemZosXtob3oWRbTo22q7XX0nav2N4Lh0j59G6HhYwP9mybyM+jsVOXsOyD7en7idCcjw6n8hjufFQwRDnQ/sj84kmw/m4NVJ5rd6Zhz+ZwcVAF4BcL7eP7W8FUkF2mP4NN+lFAnTrCerTXvA0I7Hi4XvtkcnJj5f1p+vYklp/Jelk1p63c5t0tC/R82hcDwuYHL8ef/wxH/V2uq8VX25Lu+4zgfnjGeBZRPQ7Mmt7sumx+VX3QCqv1V085qyP9V+BVJAdEf+6JCGe9C76ieKx0fi2Yk6yoORwOntb7NrQn371tUz1zyUurgSJY19cDwuYnWynxEeuo2U5s4ptb9l1nwnMHo/EzeBnFA9qW2PzzXsgldcq/s6DbiDj6StYP5xcd4NudHJTQXaMjVde1LofXfRj8dgx85JFF5/+yVck3/7a4G0utr2O6f5179e7c5w4j853leSu5Jr4dX6N+Ci3U/sI4jwW/84Y9JnCvPFIaDx0LPpUBYF90Nur9pb5ZStSee2GvjAXiYHX+6cJ90Thv/Da4uSmguyIjbe1XLyHlWOWN5gVD79qj8xOFn2hpdXtze7j1F8bvE30XMzjmuTsisLoeVTXwwKS/kkfZFIlYj6qcdFMifvIe3A0/t2m/bZTC+W88ZBoTKoQupwx3FO9D0b+iI3tXkjlte2Kx45IBXkUkfAc6ga7ZxbFdQWK+KevhwXUHr+57G08tZOKN4pHBpZc1N07bt8gUDx6ak8WJfy7uB4WsLdku7fx1E4q3igeGcBFXYba4wr/1gX32bqk4o3ikQFc1GVAcl7G3q5L3Gfrkoo3ikcGcFGXAcl5GXu7LnGfrUsq3gdK8BAEQRCkNQZmHgDsmPfv3xcRACgeAOwYK/HnEAAoHgDsGJns9TJ/xmxWW9rBfYPiAcCO0cmel+VnzGa1pR3cNxfF48ePH82///3v5rfffvOW6ylePPAP6gAYRSZ7mfSlTa9nm9WWdnDfmMXjz3/+c/OPf/yj+d///uet13GXxWOKTyh686GY0d8Ykn8HScVR/j0l9/eIcvyBqKl4/4bjiz+4F9hjf8dM/A2zjMhkr5f5M2az2tJ+c6jrZRZLtt2CFfw1i8cf/vCHLAUEM48It+r3lriYxX929vKvnoo/RLgG+pzy36jSdmrrP3YZ+J0Xmexjy4RuE1bb6nczFI51Vaww1mjxIP3pT39q/vrXvzb/+c9//Np5BMXDDSby86r+Rg/s7iZj24S/LBvY8/xV0qvgk+Y/u5+17NSNV/385WaO3hgcV0rKfOGwzV0/xjnv16/AxbHIp/a6jdl9q7SPMuHnVA2EM01//nU8+7Zx39G6fvvEzI/34z8v72tC5TH/+zLyp23DY0qfh9x4ehl87fcd3W67HDNaPEh//OMfXQH59ddffY/pXBQPeYP3fxq5G+hwAojuJAw5or1IXCO0c/C65LHeDTkKH9uNV/gq/1rqlv7dKiJm/R8PlLE246mui5IoH/qZkPZN/9XcqO95sBJ/DlUHP1ToeMp2sC6WYyLwtvRp3tdGHtN9Y3nK9fO50eVFsez2Pbad5UsL93ErypAsHlxA6BXW3BnI5cxDDoYC0gbJ+oU83dcFqQ2eZae2Wz9U2k4rJQ2N9MnyVS+DaVjx05+uo2Tl4iGvP+mrZWeivoMkVmx1PGU7tky4fY1cK9zf2s6yE1Zf6a+TymvW8pTtiNh+CrHuzCMYTObiofexFTGfZLsmf28FFTN6Uux/dpavJR3QNeMcO5Y+7zpBrenjnnCxFOec46jjKduxZYLaaxQP3YeQdmt5ynZEbD+FGC0eSwoHMVo8xqZ7LhkMtvC11XDB9K8GVP9N4XGmTuzYhQou0fH055yf5IdrgenWb/aFOaPt7rWEOPex7cA4Km79+Se7iG9wXQTrYjkmAh9Pn6++HXltJfuqY/bIfubyhO0IvW3hHBMtHvR/W/3tb39r/vvf//o187n8zkNNu/wqvc4FKbCJvu7m6+zBT0Pq/cugrgn5QcfmT2/u7b7Z//zlWsnt1tHxJOQ73haXAMQ1MJYLsmP5Rxj2zk8/6+79LXuj75HYz8TK60D/fGxw39G58f2S8efzqM+nbAf7a6+/fmYsUH36gif3EVse245Q7dI5xiweRf6dhx4oAACAm8UsHjkKB4HiAQC4Lfzr0AsZ36ndORfFIydB8QAAALAbDvRrUaWE4gEAAPuk+Mzjn//32+5FWHZomWqP6y3499PPvxSRdbzSIiw7VEYpUDwyiLDs0DLVHtdb8M9K/DlkHa+0CMsOlVEKFI8MIiw7tEy1x/UW/ONk/+PX3y+WUzarzbKOV1qEZYfKKAWKRwYRlh1aptrjegv+cbKnIqALhCwMls1qs6zjlRZh2aEySoHikUGEZc+mb5+aN28/NV+tdbP0vfnw9tAcHr8Y667Q56fmcHjXfPhmrMug4nFdqFvwj5O9LA5WobBsVptlHa+0CMsOlVEKFI8MIix7NmUqHl8/vjMKx5fmIdh32+7/3/an5jllpwKSpbBdKogrxaA99puP30ObOLYbX++j6ltAgX8ViuBknyoUls1qs6zjlRZh2aEySoHikUGEZc+mLMWDkn84S+iTrdj38+Ohefgs1vtiE7PzbIbX5VQQVxeDp7bQiTGIuDifghh1xa5kAQn8q1AEJ3urUPCy1WabbrOs45UWYdmhMkqxXvHob/7hydAlHJ8APrTJKbC324RPkj5pqP08fPavYsR2ro/ejv0oIKJvu2PrJ/auHR8Pj5+3k0/57bg+XhMjtc/YDMH37eyDr+G6mL1rkw8lkvRFXOmYNA4uXIF/xnlWfuZW4F+FImTCzynreKVFWHaojFKsWzzkDe7el7cJydlF4o8lOU4acj9uH2K5TyTxRFdChGzLp/Teb7E+sOvxW0/yV8Uo3Ec0wQfxUbHr2zG7b8fGuFBBXIWffXzZFoxBSvudV4F/FYqwEn8OWccrLcKyQ2WUYuWZh7zB6cZuE/9nZZf9aNk9UXvpRGEt622cyiUQEhHYRDJ9fhQFMzUe7iPblk22p+yzVdHiYRwvh4K46jHLcUaPr/3Oq8C/ClW7f3O1t/HUrhT1Fg/6lDMVK1FYy9K2kojQRrMHn3Slf6nxSDu3LZvcdso+W11VPPp1iWKx8syD2jQefp2H11a2avdvrvY2ntqVYrviwa9etJ3bRrKYNPNwiUS99iksQttccnt8GhL2lPE4RV5byT7cnrzPVhxvaSOpvvO/MO/aq33n0a/vzjOPqR+7Wl/CL1bgX4Wq3b+52tt4aleKlb/zEK9X+ElWJwXRpoTF/d9QIia77D+2LI/F9kIiLuzOh/CVSXI8LOX/8IQt1vv25H0aT+cu4crjuOLgk7KT9D9mX/P/tlJjUgXRHk85Bf5VqNr9m6u9jad2pdjwtdV+RFj22qRnDFkUm9FkUO1xhX/ram/jqV0pUDwyiLDs9cn/b825CggVDuu7hkyqPa7wb13tbTy1K8V6xWPHIiw7tEy1xxX+rau9jad2pcCPQQEAAJhN8ZkHAGA73r9/X0QAoHgAsGOsxJ9DAKB4ALBjZLLXy/wZs1ltaQf3DYoHADtGJ3telp8xm9WWdnDfoHjcAq/n5ng8N6++eT2vzfl4aA6nF99WvJyaw+HYnJcfCFSCTPYy6UubXs82qy3t4L6po3hkS447JVN8Xs9HUThempP419h90aACUuO5oBi0fh5lZVNxceMTYwr63iky2etl/ozZrLa0g/sGxeMWyBIfKhZyVkHtU/tfTTc7iU1ONsPF4NScjmIMIi6ucAQx6orjvRcQmexjy4RuE1bb6gfuk/WKR3/zD0+GXYLyr1L6p8UXlbx80nuJbd9C+/a2zV+7OF9kUh6SdPhk7P30CfB8Ihtv1yW+fpxn2cfb/AEm7/NiRhErHt0+q0u6fkyvNI5h8J3NjcU47/36+0Um/JwCYN3iIW9w937dJy99k8sEwcvR7VUSrCBhvLRJuy9sciySYFyyWBpP/roPbWuNMbpPMumCEBaoYF3M5y0R57WPL9vEupB4gbwXrMSfQwCsPPOQN7h4WjTXdTf9RaJw6wm/Pc1IRBLstHHCEMn35SQKHo1B+mklvotxtoz1mbLPlvHZhDgXhOXD1ugxy3FG/UXxAKAUlRYPSrpUNMTNH9vevc6yEseW0OyB/G59ZN/IfytB63EZsbiwyW2n7LNlvHiQv2I/lc88uuaxf52H11YArM92xUO+eqF1+gnR2cTrlOj2lDjCVzQ14JLb6RT1n9bbs4TIayvZh9uT99ki40207f4Y1F/Ef7zQbMTFmLrzzmPqx96tbOnWVzcOAHbCyt95iNcrqljQTIPsw82unobHttfrdOLcApWQCR4j6UiFhfy8SIotajzDE7ZHbDN5ny6ZxuM5FCujeNWANSZVEF0BMccEAMjNhq+tEugn5bnbgwtcck1lVB13AAAwqLZ49F+UMygeGehmFdECQoXD+u4AAAAU6xUPAAAAuwE/BgUAAGA2xWce1s8b7k2EZYeWqfa43oJ/P/38SxFZxystwrJDZZQCxSODCMsOLVPtcb0F/6zEn0PW8UqLsOxQGaVA8cggwrJDy1R7XG/BP072P379/WI5ZbPaLOt4pUVYdqiMUqB4ZBBh2aFlqj2ut+AfJ3sqArpAyMJg2aw2yzpeaRGWHSqjFLdTPL59at68/dR8nWpfUYRlz6ZsY/zefHh7aA6PX4x1V+jzU3M4vGs+fDPWZVDxuC7ULfjHyV4WB6tQWDarzbKOV1qEZYfKKAWKRwYRlj2bMo3x68d3RuH40jwE+27b/b/SfmqeU3YqIIXiH8SVYtAe+83H76FNHNuNr/dR9S2gwL8KRXCyTxUKy2a1WdbxSouw7FAZpUDxyCDCsmdTljFS8g9nCX2yFft+fjw0D5/Fel9sYnaezfC6nAri6mLw1BY6MQYRF+dTEKOu2JUsIIF/FYrgZG8VCl622mzTbZZ1vNIiLDtURinWKx79zT88GQbJyNuC1yC0TW9vxcnBsvtE8qFNcuETc3kRfdv5pp/Yu7Y5TtNv+ZTfxumj7ONtY7Gz9hmbIfi+nX3wNVwXs3dt8qFEkr6IKx2TxsGFK/AvLIzhemXPpMC/CkXIhJ9T1vFKi7DsUBmlWLd4yBvcvS8XCYnVJ4cugfZPtEGiMOxu/8K+ogjZlk/pw3iG9YH9wm/jSV73oW2tpBjd50iC5/i5tioSfTtm9+3YGBcqiKvws48v24IxSGm/8yrwr0IRVuLPIet4pUVYdqiMUqw885A3ON3Y4km5TXb9E7SVEGKJImZfUURgE8n0+VEUTPJx6ji5bdlke8o+WxUtHsbxciiIqx6zHGf0+NrvvAr8q1C1+zdXextP7UqxffH43NrljCSWEObaVxQR2mj24JMu+0T+zRknty2b3HbKPltdVTz6dYlisfLMg9o0Hn6dh9dWtmr3b672Np7alWK74sGvXoyk0L2SCRNC0l44UYyJ0DaX3B6fhoQdG+eF35HXVrIPtyfvsxXHW9pIqu/8L8y79mrfefTr6TrwM6223Y9drS/hFyvwr0LV7t9c7W08tSvFyt95iNcr4kmWEhPb31DC5SRACW+q3UqYK4m4sLvxhq9MzHFafqtYDU/YYr1vT96n8XTuEq48jisOPik7Sf9j9jX/bys1JlUQ7fGUU+Bfhardv7na23hqV4oNX1vtR4Rlr016xpBFsRlNBtUeV/i3rvY2ntqVAsUjgwjLXp+6WUK2AuJmgMZ3DZlUe1zh37ra23hqV4r1iseORVh2aJlqjyv8W1d7G0/tSoEfgwIAADCb4jMPAMB2vH//vogAQPEAYMdYiT+HAEDxAGDHyGSvl/kzZrPa0g7uGxQPAHaMTva8LD9jNqst7eC+uZ3i8Xpujsdz8+qbd0W2sb825+OhOZxefHsiL6fmcDg257sM/m0jk71M+tKm17PNaks7uG/qKB5TkiOKx+Kxv56PonC8NCfxr7GH4iDtp7bloQKyZfz18Skm5PMLfcpxkPxYXJ/BfrzD6ieTvV7mz5jNaks7uG9QPG6BLGOnoiBnD9QWxcHzcjo0XF/CYtPNWuZOWnIifaNlVwyisTHGu6XzGyGTfWyZ0G3Calv9wH2yXvFwN/mpOdFrE/8k2N3L/lWKfDqkvr4dPEXeQvFwvsukPCRpl4wj4zq3yXB40qdtuF8bp7Ps423+AJP3eTFzsIqHsqmY07E2fXpnf2SMlY8D1vjuD5nwcwqAdYuHfBJ079GtBBBJYNEkUR/yCdmN03riZbuLi+jfjvDiCV/3uSgEnug+yaQTf1igunU64ap2bCwr4mYcx+MwNj/WoYC28rGhvq69sc9bYiX+HAJg5ZmHTHiUmIxZhZUMKIFdbF8xIsm+nETB1GOj8ehxWeMc6zNlny3jswY+F4niYfm2NmOxiEHng2Jzx0UEgNzUWTysZDAlSVQDzR4o6bZjlOOSMy8ejx6XNc5YH/qcss+W8eJB/hrFQ++ngplHNBa+GUcXRgDAErYrHpSIuE3r+hubbnL12oaYnCTqgJL16XQaErbyn9bbs4TIayvZh9uT99ki40207f4Y1N/HX75yc/sTjowXoJWIxcI3e8gugxjrBwC4ipW/8xCvV9RTIL+fdslJ96Wb/tZufjcGe4xunFRYYuNS4+cvzPs+YpvJ+3RFWc1S5DF6R7vi3dml/0ZR2wI9NjWOTjTOzt/Q5rcBACxmw9dWYG30TGIWeuYCALhrUDzuCv80PreAUOHAkzsAQLBe8QAAALAb8GNQAAAAZlN85mH9vOHeRFh2aJlqj+st+PfTz78UkXW80iIsO1RGKVA8Moiw7NAy1R7XW/DPSvw5ZB2vtAjLDpVRChSPDCIsO7RMtcf1FvzjZP/j198vllM2q82yjldahGWHyigFikcGEZYdWqba43oL/nGypyKgC4QsDJbNarOs45UWYdmhMkqB4pFBhGXPpm+fmjdvPzVfrXWz9L358PbQHB6/GOtG9PmpORzeNR++GesKqnhcF+oW/ONkL4uDVSgsm9VmWccrLcKyQ2WUAsUjgwjLnk2ZisfXj+9E4fjSPAT/KpuLg7Q/Nc+8PRWQLAVsuoK46uNTTMjnz/Qpx0HyY3F9Bvubj9+H/WVQ4F+FIjjZpwqFZbPaLOt4pUVYdqiMUqB4ZBBh2bMpS/GgoiBnD9QWxcHr+fHQPHzulsNi081aeN0a0nGVvtGyKwbR2BjjnTvjSkj7V5sITvZWoeBlq8023WZZxystwrJDZZRiveLhbvKn5oFem/gnwT4RqSdE94Q50t8lNdmXj7GRiL7txiKT8pCkA7/l03E7hg9tMhye9Gkb7teO+6Ps421WLMb2eTFzsIqHsvn98DZ0rNxP72MK4kpif2SMlY+DrPHl1YV/lYmQCT+nrOOVFmHZoTJKsW7xkE+C7j063dxdogwKSZ8gjP4ycbR6fiybIKaIkG35hOz8tp542e7GI/pbT/i6z0UhEHZzn1biDwtUt04nXNWOjaWQdFxJbsbx9t0wNj/WoYC28rGhvq5dyGfLv5pEWIk/h6zjlRZh2aEySrHyzEMmPEpMbXGgd9bSzv1i/b9x0tu+aLCIwCaS7POjKIA60VnjvBi3YZPtKftsNT5rkLEdKR6WbwV1EVfSWCxiovNBsclcREz/KlLt/s3V3sZTu1JsXzw+qqdo7hfrz4nYtSlhbl9EiNBGswfyq/WRx0Djkf7HxnkxbsMmt52yz1bjxYP8NYqH3k8FM49oLGQfU2psGWT6V5Fq92+u9jae2pViu+JBici1VVHgfrH+rf2hT4Kc9HyfjURoGyXrh8enIWGr8dB6e5YQeW0l+3B78j5b9fEe2uGrny6xyldubn+iWIwXoPyy4hqNhezDdlnoYv0WyPSvItXu31ztbTy1K8XK33mI1yvyKZASm1xHN3m0P884Oq2ZzGIiLuzO//BJt38HT35TYeFx6qSmxs5fmFsJc/I+rSItj9EXKxlf6b9R1AorGlcdCzGOTjTOzt/QJvaTQaZ/Fal2/+Zqb+OpXSk2fG0VERUSemKc2r8CEZa9NumZxCzpmcsKqj2u8G9d7W08tStFFcVDPj33T7soHgXkn8bnFhA3M1z/9WDtcYV/62pv46ldKdYrHjsWYdmhZao9rvBvXe1tPLUrBX4MCgAAwGyKzzwAANvx/v37IgIAxQOAHWMl/hwCAMUDgB0jk71e5s+YzWpLO7hvUDwA2DE62fOy/IzZrLa0g/sGxeMWeD03x+O5efXN63ltzsdDczi9+HYhXk7N4XBszssdBguRyV4mfWnT69lmtaUd3DcoHtkSc0Ey+fh6Pg6Fg/bZ/9uaQ3PsM/1Lc+rtp7bFzLRTAckZV70/539boF7CcXTyhSs6xvtBJnu9zJ8xm9WWdnDfoHjcTfGgJC9mA20yHiYgw7qX06G3y2Iz19623Cynb2ZAHouWXTGIxkaNl9o5nbkRZLKPLRO6TVhtqx+4T9YrHu4mbxMWvTbxT4LDvSyfXr09eGr0T7RqH6cX/xqGt+E+/XbiCbRNMOc24XR27j9sT8ryZOqOr5/Mu7ZLrv5Ytm+8nYrHOeb/jH2OzgQoDrTt4KvD7+fV+TPHzs1j3qd93j998nHVMQeUb3eKTPg5BcC6xUM+Cbr34nRzW0+oXfIMEiQ15D7c9mJ5LJm57cQxZCKNJp/rkU/I7ljh4DrYrn2z4jHmvyS6TzKNJPI+Bjrhcnuu3RMb+wLcjKMtdP1u/ViHAtrKx4b6unZmH24JK/HnEAArzzxkwqNE0yZ/emetE6Hu6xJEm5Sk3Vp2/UQScVLbEbH95EIkzZeTKJjaP/Y55hsz1mfKPlvixcOfB7cqVgzm2j3WWJYyFosYdD4oNndcRADIzf6Kh94Xoe2x/WSDZg8+ucrj9Enat2ndmG9MrA99Ttlni108/DnozbHkP9fuKTDzuDiGMVYb5SsAYBHbFQ9KLK4987UV78NcDrfr0cfW2xZIKuTz6XQaErbywY2J2tq3dsl8bWX5P3mfLX28PdQnKBwd8pVbH/eWuXaC2lm/8yBisfDNHrILX6L9AABXsfJ3HuL1in5iFevcPR/YfF+ZAMaWxb7MZKra/G48a6JzfoRFqX8HT8eiwmL5Rqgx8Bfmlv+T9+kK61AsXKIXx3Dbu5VdAe5s0v+5duuhIAN6bCpWnWic3fFDm98GALCYDV9bgbXRM4Oi6JkOAGBXoHjcFf5pvHQBcV9Q40kfgD2zXvEAAACwG/BjUAAAAGZTfOZh/bzh3kRYdmiZao/rLfj308+/FJF1vNIiLDtURilQPDKIsOzQMtUe11vwz0r8OWQdr7QIyw6VUQoUjwwiLDu0TLXH9Rb842T/49ffL5ZTNqvNso5XWoRlh8ooBYpHBhGWHVqm2uN6C/5xsqcioAuELAyWzWqzrOOVFmHZoTJKcX/F49un5s3bT81Xa92VIix7NmXz+Xvz4e2hOTx+MdZl1Oen5nB413z4ZqyboeJxXahb8I+TvSwOVqGwbFabZR2vtAjLDpVRChSPDCIsezZl8vnrx3dG4fjSPAT7btv9v8p+ap6vtVMBWehzEFe9P4oJFajP9MnHZ/nC5foM9jcfvw/7y6DAvwpFcLJPFQrLZrVZ1vFKi7DsUBmlQPHIIMKyZ1MWnynJh7MBV0wosYp9Pz8emofPYr0vNnPtPMvhdddIx1Uei5ZdMYjGRo+3bWeecWn/ahPByd4qFLxstdmm2yzreKVFWHaojFKsVzzcTf7UPuUOT4IuEfib/0ObDPonV7L5PsFTpNj+4bN/BcP7abfrk+HFdmL/vu2STYnXK853/WTetSf512/D/drxfZR9vG3OmGmfsZmAjIfwNVw31961ybclT/tBXEm8f/rk46pjDlK+FdCFf5WJkAk/p6zjlRZh2aEySrFu8ZCJ2iXu9uZ29iEZRhOY3F4m/VhSJDs9aer9B/vLk1wI2ZZPyL0fYn1g1/5ZT+y6z9wxt4omco6Ha+uEy+25dt+OjX2idFxJbsbx9t0wNj/WoYC28uOhvq69wIcxWf7VJMJK/DlkHa+0CMsOlVGKlWceMuFRomkLAL2zlnYrGVBCktuPLcvtyC7XB31k0lsmIrCJpPn8KArmVP9k27LJ9pR9ttqkeBh+zNFFXEl6n1OOQeeDYpO5iJj+VaTa/ZurvY2ndqWos3hYyUDarWX6lDMbaZf78+1net2TKZkQoY1mDz65Sj9n+Ne3LZvcdso+W11VPPp1c+2+XWDmcXEM3Y5K+ZpBpn8VqXb/5mpv46ldKbYrHpRYqH1x89NNrl7bkGQ/a1ntx30XYNjltv2XrrzuShHaRsd/eHwa9j/Vv9hrK2sMk/fZiuMtbSTVV75yc/vrZ1Dz7NxeEl8rrtFYyD5sl4Ur1m+BTP8qUu3+zdXexlO7Uqz8nYd4vcJPgdZNrfvSetkvsty/4271hhK33k5v6wvV0gJCXNjpOOpJd5J/JLft0Je/MLfGMHmfbqxiltLKJXt5HFcEuph0Nun/XHv+/9vKSY9NxaoTjXP4HyoGm9hPBpn+VaTa/ZurvY2ndqXY8LXVfkRY9tqkZwZFFZvpzFDtcYV/62pv46ldKVA8Moiw7PXJP42XLiDuC+rlT/q1xxX+rau9jad2pViveOxYhGWHlqn2uMK/dbW38dSuFPgxKAAAALMpOvMAAACwT1A8AAAAzAbFAwAAwGxQPAAAAMwGxQMAAMBsUDwAAADMBsUDAADATJrm/wGQOGNia3h6YwAAAABJRU5ErkJggg==;" vertex="1" parent="1">
          <mxGeometry x="70" y="330" width="399" height="163" as="geometry" />
        </mxCell>
        <mxCell id="aRsgU26TpFkdN7H3gEH3-3" value="" style="shape=image;verticalLabelPosition=bottom;labelBackgroundColor=default;verticalAlign=top;aspect=fixed;imageAspect=0;image=data:image/png,iVBORw0KGgoAAAANSUhEUgAAAUUAAAB/CAYAAAB44tAiAAAAAXNSR0IArs4c6QAAAARnQU1BAACxjwv8YQUAAAAJcEhZcwAADsMAAA7DAcdvqGQAABeiSURBVHhe7Z2/jtw218bnomzA06bPBaQyFsjOJQRIEzcutsreQlo37rxX4cZAKrtJkyp48SLfCzhw/unjQ/FIh0eHEjVDaqjd8wMejHhIiYfU8Flq1rM+/Pe//9f99NNPJpPJZHIaTPH333+vqi36MJlMpksVmWJN0Mde+PXXX8ORcQ6tz5/lty17Gg9yNVNUeGxvyq0x07mMx/b+29N4kKuZosJje1NujZnOZTy299+exoNczRQVHtubcmvMdC7jsb3/9jQe5LpvU/x03x2P992nUBxIxTN5bG/KrSk+f3Q/L7yvROv3t1p+D6fucDh4nR5CLIcntJ6QaxumiEkPN2vUqXtYuhmp+mo38VN3f5R59jreX7pUHw+ziyDc62i+cu/zhfeVWMyP9xGMZJWJXEjO/PH3Xl5uD93pcOzOepvyOTnjHqwdz2EpzzNyyAW5tmOK5wwydd6FkzZ7E4mKN2bvLJvOqTsd2Rt/aS6pvtCcL+cX+sDxuUZyAdn5AZ9jhjH6dm6jEYqrkHOy8h6sGk8O55yTCXJt2xTlzZA/SZL1ThdM2uxNJCY597vI8c0ZfjI/oB1MYMxtaKON6RGQtQiwA6OJoJicUxmX9WeSlR9e5T3xMXm/Evf9giRXmwiPqTkiJ4o5ubYP98exTO3ktak8xOMnpdyno9Xj8fQ5D334cSFPkcPp5M+/P6Hcm/4nbWyZINedPD5jgthPOYpH9cJs1InOY/YmEloffKHTMdrxG+MfxzCWxJhCcc/kLoIH90b200UxOQcyLuvPZDm/Y3zPPDP3S7vvF7DeRCi3mRzn5o6/V3kbKudeJ8HieOTa53358cAI2f2Q+fC1L1l5P5DrPnaKYeDRxGGyeD0/P3W9TGZvIqH2Mb4pJwve1wO0cTcYO0htTKHVnsle1HQsX31Dx1L9mSwvUnd/7t1ikrkk75dy3y8ge/4GQv9zOcrzZFttfqnM47JNBuvHM0K7vuRn0Nr5iMmxhaolkOt+THFNfap9JrM3kUj00S8K9hN70o6Z4gU5tsyaRYA3/ek+xFL3Ub6G6nPJzc8vSHK4hb4n9/0CVptIzvzwOhzznXDqfC0u22Swejwc/2S1whRR1sYWiksg1518pog3m/ITOKofJ8K/mVdMhGT2JhJzOfObKNvhJs+N6RGwbhH08zDsVJipDPeRzpmcex75+fWfX/X3cuF++dzF4j2Tc+avz2smR36euEY0z3Pz3wejNjmsGw8H40FfeBVGRznI80V5rRcg153+ooUtIqoPP1H8T5Xw4WvuREhmbyKRytlFJp9/8Lz5G0obU6jaM6sXwfCDAtXuTRzmY7iPdE5yztdxjul4s5u9X+K+X8BifjwHbhYglaMYF3a21Iavl9n5708dzs39AbBuPBDGJAzer+9x7Qw5KGs9NbYckGsbptgYszdxCbbAPeIN9RS4aP42oEp+8r5fQOvzt5Y9jQe5mikqXHIT+8+WQgGYKTZHjfwm9/0C9mQiOexpPMjVTFHhsb0pt6b1+bP8tmVP40GuZooKj+1NuTVmOpfx2N5/exoPcjVTVHhsb8qtMdO5jMf2/tvTeJDrYIomk8lkEv9HS03Qh2EYebx69aqKjGXMFA2jQTRDKyFjGTNFw2gQbmLymF5TMa3M48Y8ZoqG0SDSxOiYv6ZiWpnHjXlmTfHz58/dH3/80f3zzz8hcj5ZpvhU/qFzsXGGvy239l8N+69MlflKmlEHbmLczHhM1lNMK/O4Mc+iKX777bfdb7/91v39998heh6RKaZMwUxxFf57quOXQ/13RePvj8o4+951wa+lzYKxur6j78mK8fPv20Il/qhCNiG/sX/2hwaiOPshEtWxOS0INzF5TK+pmFbmcWOeRVP86quvihij7RQZRcYp/nKIL08XKP/6WWyi/S6z1FfTkvixpv/7AZ9TNBe9iW9mjPJe0A8LGUeZz6+sLww3sdQxkGWglbV2hk6WKULffPNN9/PPP3d//vlnqF1Hcqfo32zsJ3LFN9pZyMXAzCfe4YRFH8bG/zw6LXRqS38/sG8TYqGD7GtOdnqaKYoYn3dfPNY3H+oT+Y6DDHkgP27sAZFnVSZ9hTlLxUOpdo7cyErKWCbbFKGvv/7aG+OXL19Ci3x0U8Qbje1WtlwMK4i+7M8XN4fiGAMfkxvNZEcm20wMLpC8JkLS0Pq5JEPt68RCluXUWErC7ukwjxRjdTEy74qIHIadq8xN3qNk7mXQDK2EjGVWmSIZIx6l1+4YVVOUb6zKb7SzYebxcBKPgcyI1MWkjWmuTc41HfO7PJgK8lwwRS230six8fEk+9/YFOV8z8WJZO7G3rnuTlG+sZp9o2G3h0XqFivl5xeNMMjcMaXa4DXnmo55U6Q/eLpgghvvFPsi++8HvPmx8RLKeKuR6ovHcSxNesscjU3JNsVLDBGopigWxfDo0hebwi9m/BXfMdloUQy5TxZL4vGZt6Fy9jUd8nHOlYc+0D4s4vQvWvpy2lgLMckd93zceQ1j7CsdfX31vAhtboGMY7633mUbVyHLFPHb519++aX766+/Qs16dFN0+Ddb/4iy9k+HbwpyFrsFGM4kd22x+HPHtuNOKcDOyb6mNw+xq+R9DIkGE/Li+W/522eRuzB0b4xq7hugzq1Difd5ujmP/idGsYM0ds+iKVb5d4pGEeTObxVyp2kYhmfRFEsYIjBTrEG/21ttjH53rnyWZxjGvCmWxEzRMIw9EJki/upsLZkpGoaxBzbdKf7nf//sQkCLm/LU+vztIb/vvv+hirT+agto8RYFzBQVAS1uylPr87eH/DRDKyGtv9oCWrxFATNFRUCLm/LU+vztIT8ysc9f/p0cL8W0Mknrr7aAFm9RwExREdDipjy1Pn97yI9MDOYmjY8bnhbTyiStv9oCWrxFATNFRUCLF9OHH7tnz3/s3mt1q/Sxe/380B1u3il1M3p72x0OL7rXH5S6Aqo+fxdqD/mRiXHT0wxQi2llktZfbQEt3qKAmaIioMWLqZApvr97wQzxXfeSfStkND0ev+3e0PkwxiLGPFU0fxir6/vZ3cc4xvr24xhyFG0rKMqvQQEysSUD1GJamaT1V1tAi7coYKaoCGjxYipiijA7vttDmZle0JubQ/fybX8cm2i/y6S6kormz4/1tnv5nOXKxu9ziuaiN/Gaxhjl16AAmZhmgHSslSkmyyStv9oCWrxFgeuY4rBQxt2BX5zcLHA8LHIs4OmCryUwlKM8oNF84h1OWPRhDK+dGY07M75bc2O9421CjBvX0HbmmpOdnmaKIsbn1wl91TCfyfyhT+RLhjzkgfy4sYtzeKygovwaFOBGVlJaf7UFtHiLAtczRb4Y/GdcWLyx4by8ccbpzcLFKy4SKcDLfLflc9U+w6O4HxvfgSk7MtlmYnAsrl5TMzTM3WiyfZ0wRVlOjeVCRfPHDG6YR4qxOn7+NO+yivJrUEAztBLS+qstoMVbFLjiTpEvBiyC3iTf3NCrWxRoR6ZQYfGmBKIYMw/Kz8eRFzMib2xybJOxKjFezrmm0/wuj+ZzwRS13Aoomj85Nj6eZP9milp8r9rTeEBzpuh3iG9d2deHx2ZnStFOq7JAHKPHd8rLxTAGvttNLXRt4afa4DXnmk7zpoh8FVOU19l4p4iyv7/h4wN7fNbVen5rtafxgDZMEYuTyq4OH8rTgn9/5wzR7RonC6eigIz5xezyGIxIWez6ri7x+MzbUDn7mk58zkJ56APtgxmmf9HSl9PGer6i+ZvkDiMMO2BXHsYo6mvkRYrya1Ct57dWexoPuOJniuwRcfKIx3YPcvFvIDCJM6OhGAyHxvAMhok8NQMT4x13Sqw+lLOvKedJ9jGYcDAhL56/YtaFFM2flru4p94Y1dzrKMqvQbWe31rtaTygkcfntgS0eGuSO79VqvjDpvX5s/y21Z7GA8wUFQEt3p763d5qY4Qhap/lFVLr82f5bas9jQdcxxQbF9Dipjy1Pn+W37ba03hAZIraH4ctJfRhGIbROpvuFA3DyOPVq1dVZCxjpmgYDaIZWgkZy5gpGkaDcBOTx/SaimllHjfmMVM0jAaRJkbH/DUV08o8bsxjpngNPt13xyL/Eb39v8+PFW5i3Mx4TNZTTCvzuDGPmeI1KGSKn+6PzBAfuhP7Vshoejx+cqUAjLGIMS+Asbq+j9yBxfj9OIYcRdsnCjcxeUyvqZhW5nFjHjPFa1DEFGF2fLeHMjO9wMPp0JFvxiba7zLXbjJX48d66k5Hlisbv88pmovexJ+6MXITSx0DWQZaWWtn6FzHFMOiuHcLlnYH0cINsWG3MywsahseG9l5vo08rwT+utxsRvNJ50pjo/P4bs3lfH/O+MU1Jzs9zRRFLFyHzkFf1c2H+kS+4yBDHshPuVciz6cIN7KSMpa5nikyI0g+ytFC8u3D4kGMHw+LK734L4XvtoacJFGurL3LYrIjO2v88TWmhhYbb18njVKUU2MpCbsXwzxSjNXFyLyfHpqhlZCxzFV3isNi4GUcs8XtzULWy2N5jlfBRcXM4+HEdjZLuQJZBnNtcq7pmN/lwVSQ54IparmVRo6NjyfZv5micT3aMkW88scpbfFoxzxWBez2sEjdYuV9L+UKtNxSbfCac03HvCkiX8UU5XU23in2xePw8YE9Phst0p4pigWUtVP0i0s8ohbGL+bTaTSinFw9icdn3obK2dd0yEduVx76QPtghulftPTltLEWYpJ7f68o92GMfaWjr6+el2EkaO7xGYuYHh2PMCHEefu543De8NiJeCn89eNHusVcCZHbuFMKsHOyr+nNQ+wqeR9DosGEvHj+ilnXQMtdGLo3RjV3w9ie65iiUQS581uF3GkahuExU9w1/W5vtTHCELXP8gzDMFM0DMPgRKao/XHYUjJTNAxjD2y6U9T+/HeLAlrclKfW528P+X33/Q9VpPVXW0CLtyhgpqgIaHFTnlqfvz3kpxlaCWn91RbQ4i0KmCkqAlrclKfW528P+ZGJff7y7+R4KaaVSVp/tQW0eIsCZoqKgBY35an1+dtDfmRiMDdpfNzwtJhWJmn91RbQ4i0KXMcUL/1/nyv/v9FAi3s1/n9Wt6DZ+WtAe8iPTIybnmaAWkwrk7T+agto8RYF2jLFOcPhda2bYuX8Wlc0f5iLw6F7dvcxjrH5eX/3IvpGS9S2gqL8GhQgE1syQC2mlUlaf7UFtHiLAvvZKfJzKpsO0OJeOX1Xzq91RfPn5+K2e/n8Rff6A4/18+MNMZqrd93LysYY5degAJmYZoB0rJUpJsskrb/aAlq8RYErmiIWCu0OwoKhxRJeX9+g7rZ787+P3euhrVswN7esvtfLt+PALhWIYsgn9OPFF/QQp0UvcsXijs5n5vBIFc0f3dO3t93h5l0c8waozMdQL+KFFOXXoAA3spLS+qstoMVbFLieKbLFMOwWaDH4emF0fKHIeiy4gosIjOV+5zL0xfPgUhc96nA+jD20S53/iBTNHxvvG/dDzM8jxZJzIeassKL8GhTQDK2EtP5qC2jxFgXaeHxGGYtgbrHwmHa+bH+BwFCe6wvHww7QSctPtvGqt+BbUHL+6Fi+UttBZopafK/a03iAmaIiMJRTfeGVP/rxdqnjJ6K5+cNTwcs7itnjs6bW81urPY0HNGGK/vEZj54U1xYFYrR7kPVa+wsExnK8cCeP+qHdEEeZ5+rPL/uZZ+uK5m9yb/r5oLmK5o3VP/VftGjxvWpP4wFX/EyRPU5yM8HxZCH1wmdSaE+/aBnqE+3PFYhi+Lww5Mr7pny0nIZcJ79ocSqYa4uK5k+7N+IzYG+MbH5q/wCJ8mtQree3VnsaD7iOKTYuoMVNeWp9/iy/bbWn8QAzRUVAi5vy1Pr8WX7bak/jAWaKioAWN+Wp9fmz/LbVnsYDIlPU/jhsKaEPwzCM1tl0p2gYRh6vXr2qImMZM0XDaBDN0ErIWMZM0TAahJuYPKbXVEwr87gxj5miYTSINDE65q+pmFbmcWOex2WKn+674x7+g/dieZ75/z6nsP8Puhm4iXEz4zFZTzGtzOPGPI/DFMlknpgpfro/Kob40J2ia7vy8G2RkysRiTiMseQcYqyujyN3WjF+P44hF9H2icJNTB7TayqmlXncmMd2itegSJ4wtXhXN5gLu/bD6dCRb3ITTcVdye8+J157Ln6sJ2fULFc2ft93NBe9WT91Y+QmljoGsgy0stbO0LmeKWJhDLuDsGCGBdTHTw/h8dAf02l8V8HPcwuLLbZi+DzlDqsvz+Vy70xn3IHxXZkbyz1vE2IZ44uumdrRRXMw5uoZ6lJxKh7LmRJdG/mOg2R5MLMkRD5PEW5kJWUscyVTTCxKvNIi4Z9vpQyAFho/v8Ji4ruqoU8Jz4WZnAtMd16yTc74omsilDCuaA7EPA/lVDyQGuM5sHyGeaRYlCtH5vf00AythIxlrmOKYZGPO6KwA+KLZO6Yn8cXF29XEmYSDye2s5nLJTSJcifm2uRc01HVFJX+zkaOjY8n2Y+ZonE9rmeK2mLQFhA/xit/3OJx/hqqy4HdXjATntNcLiEcjYNItcFrzjUdZ5niULdggpV2in3xOHx8YI/PRotc8fFZPFICvhi0Y2WBbbJTdPjFfDqNRrSUS4i7Gv3xmbdJ5J++piP1yC3arv9FS18u/pliKNK9p9yHMfaVjr6+WP+GsZJGftGiPCYmjrGY6ZwjTIqfx88pDa4tHulmcwltPP7cse24Uwqwc7KvqeyyvMHwfnyywYS8eP6peI3fPovchaHreRvGdbieKRoXI3d4RUjtQA3jiWCmuGvCP1kqZYwwRO0zPsN4QpgpGoZhMCJT1P44bCmZKRqGsQc23Slqf/67RQEtbspT6/O3h/y++/6HKtL6qy2gxVsUMFNUBLS4KU+tz98e8tMMrYS0/moLaPEWBcwUFQEtbspT6/O3h/zIxD5/+XdyvBTTyiStv9oCWrxFATNFRUCLm/LU+vztIT8yMZibND5ueFpMK5O0/moLaPEWBdo2xQ8/ds+e/9i91+oqCmjxYio2ro/d6+eH7nDzTqk7Q29vu8PhRff6g1K3QtXn70LtIT8yMW56mgFqMa1M0vqrLaDFWxS4ninmGIOZ4qze371QDPFd9zK6tisP3xa57d4sxWGMF+YWzR/G6vp4dvcxjrE+/DiGXETbCorya1CATGzJALWYViZp/dUW0OItCpgpKgJavJiKjAumFu/qBnNh135zc+hevmX1wURTcdp9Ut05iubPj/XWGTXLlY3f9x3NRW/WNY0xyq9BATIxzQDpWCtTTJZJWn+1BbR4iwJXMsXw2Md3BlgooTw8wrVgij4vucPqy/EOJ875tTOdcQfGd2XOcO54mxDjBjW0nblmakcXzdmYa1yXivdl5HCJKU3mD9dGvmS8UR6xscf1Il5IUX4NCnAjKymtv9oCWrxFgUZ2iolFWnlxpAR4me+qvBlpn+FRHDkzk1N3XrJNyuCS15wxrmjOxLwO5VQ8lFNjzFQ0fyyfYR4pFuXKJfMrqyi/BgU0Qyshrb/aAlq8RYE2TBHHw+6I5BZFctHUFYhizCTe3IjHQJ6zttC1Mcy1ybmmU1VTVPpbo2j+5Nj4eJL9mClq8b1qT+MB7ZiitjiSi6auQBzDbi+YCc+ZP/pRrjJnbQypNnjNuabTWaY41C2YYKWdIsrImz4+sMdnXa3nt1Z7Gg+4rikOCxOLQzxiUpuKiyMlIGN+Md/cjkakLHZ9V5d4fOZtqJx9TafUI7dou/4XLX25+GeKQ31/ryn3YYyi/pL+lxTl16Baz2+t9jQecD1TdMLCxCOiXwBYPFgsJCwUzQw2EJjEfX7xIx3l78cAw0zlLMY27pRYfShnX1PZZXmD4f140wsm5MXzT8Vr/PZZ5C4MXc+7nqL8GlTr+a3VnsYDrmqKrQpo8dYkd3hFlNqBrlDr82f5bas9jQeYKSoCWrw9hX/aVMoYYYjaZ3wr1fr8WX7bak/jAWaKioAWN+Wp9fmz/LbVnsYDIlPU/jhsKaEPwzCM1vGmaBiGYfSYKRqGYTDMFA3DMBhmioZhGANd9/8BbgnZq3aIzgAAAABJRU5ErkJggg==;" vertex="1" parent="1">
          <mxGeometry x="70" y="560" width="325" height="127" as="geometry" />
        </mxCell>
        <mxCell id="aRsgU26TpFkdN7H3gEH3-4" value="&lt;font style=&quot;font-size: 20px;&quot;&gt;&lt;b&gt;Data&lt;/b&gt;&lt;/font&gt;" style="text;html=1;align=center;verticalAlign=middle;whiteSpace=wrap;rounded=0;" vertex="1" parent="1">
          <mxGeometry x="70" y="80" width="60" height="30" as="geometry" />
        </mxCell>
        <mxCell id="aRsgU26TpFkdN7H3gEH3-5" value="&lt;font style=&quot;font-size: 20px;&quot;&gt;&lt;b&gt;Guide&lt;/b&gt;&lt;/font&gt;" style="text;html=1;align=center;verticalAlign=middle;whiteSpace=wrap;rounded=0;" vertex="1" parent="1">
          <mxGeometry x="70" y="290" width="60" height="30" as="geometry" />
        </mxCell>
        <mxCell id="aRsgU26TpFkdN7H3gEH3-6" value="&lt;font style=&quot;font-size: 20px;&quot;&gt;&lt;b&gt;Member&lt;/b&gt;&lt;/font&gt;" style="text;html=1;align=center;verticalAlign=middle;whiteSpace=wrap;rounded=0;" vertex="1" parent="1">
          <mxGeometry x="70" y="520" width="90" height="30" as="geometry" />
        </mxCell>
        <mxCell id="aRsgU26TpFkdN7H3gEH3-7" value="" style="shape=image;verticalLabelPosition=bottom;labelBackgroundColor=default;verticalAlign=top;aspect=fixed;imageAspect=0;image=data:image/png,iVBORw0KGgoAAAANSUhEUgAAAfYAAABwCAYAAADsdVLNAAAAAXNSR0IArs4c6QAAAARnQU1BAACxjwv8YQUAAAAJcEhZcwAADsMAAA7DAcdvqGQAABglSURBVHhe7Z29zty2Eob3ohLA26bPBaQyDMR7CQc4zXHjwlX2FtK6cefvKtIESJWvSbNVkCI4gIP8+OhwKA53OBrqZ0VpudL7AC9WHFLi8EccUbv2d/j+++8bCIIgCIIeVxIf2H///fdFtUYdEARBELRXSWJgXxL9NLEVLpdLOAIlqb1f4R+oFYz9PtHjjsA+A9xEy4DAOQ/My/2Csd8netwR2GeAm2gZEDjngXm5XzD2+0SPOwL7DHATLQMC5zwwL/cLxn6f6HF/3MD+fG6Ox3PzHJKRnH0BcBMtQ/F+5TlRaG7UPu6L+fd0ag6Hg9fpKdjGsOI9uXewJu0TPe73D+x004fF4qpT8zS0GOTyV1xE8jfRc3M+6ja1Op6xvA3RuziF+ZL049i5UmhuDPon6wjBcFIgnMmY/pNzcpxvT83pcGxumr6yTwqNAbCZOvaHoTHFeD0EetzrCOy3TJzceStOxN6biMGNMZnhwHlqTkexIA31MecXGoth/0IddHxrMJzBaP8I7+OI4O7LuQfukJyE7pMCYwBsJo39GDBeD4Ee93oDu14M9BNmNt9ppYnYexMxnfa1u/nrQhp2Qk9UjgLWtR2xjNX+DTNqcaKdMHcQ23Rfa7vOv5FR/tGnHitv0+OYmQ8znJy8uEub6SP5xDYnV/bpfLymuZy+NqejPX2ThbdX5Zk89p52fON4+DlAY6rG63Ty559PlG4f8p6teQBWR4/7A7yKp0kndgpsT/JVEDQnb3l6byLG8kcGJT6mcvLG8K9wqd2Z9ofkFhm7OD25BcZ3I9t032i7zr+RYf+O6Vh6esbRmg8zmL64s289Pvb1nZzDsgynx14HzGZw7PVaK8fFjz0FczF39djJtVZTYO6C29DjXv+OPUymZDLSBJT58vzc9Rag9yZiTH+uC2gnOPl8gsq4G4x28lb7Q6ktMjow8bH+9AUdQ/k3Mrx4unE7u0VO+5IdR2M+zGB0/0VC/X0+6vN0Wat/OS3tugwoyvSxv8K77+zvV6zzyabnQcgC66HH/TEC+5T8XPkF6L2JmIw/7QIudkidciKwr9SeWpiyONFidDoHW24u6M+QfStj/fMLJUfpgbo782EGkxf3Mf0j8+hYvpHInW/ZdRlQlMljL/FvCScEdkpb8yAkwXrocX+A79hpsTN2MUn+dXL5xXSlydV7EzF97ZM3kS5HN1lf+zfMtMWp7Z+4YxSBMc4FPqdz7m2M96/9jrId44Fx9L6rRfVGbum/1q8eH+V56hpJP/f1f2tMyoCyTBt7CY09jQt9qmDN46XPV+k1116Qosf9AX88JxZxzg9Pmv5pM/zAY43J1XsTMbn2OUvnuyzZRrn4We0PWVtk8uIUH4Io2y0uoZ/iXOBzsmMxjVsCpw/YveOo5sMMBv2TPshFnMj5qNpFbxi4jLznevu/PTWeW+IhBqRMG3sSjb96oPPr6XX9ieNlrK25eQDWRY/7/QP7A9N7Ew0hgpFHLX57Zla/rsAi/un5MIPa+w8sB8Z+n+hxR2CfwZybqP1ONSQIBPZI7YvTEv515sMMsLjvF4z9PtHjjsA+A9xEy1B7v8I/UCsY+32ixx2BfQa4iZYBgXMemJf7BWO/T/S4I7DPADfRMiBwzgPzcr9g7PeJHncf2CEIgiAIelxJsGMHYIO8efNmEQEA6geBHYANYgXlEgIA1A8COwAbRAZifcyfOZuVlnYAQN0gsAOwQXQg5mP5mbNZaWkHANRNNrB/+vSp+eOPP5rPnz8Hy+0gsAOwLjIQy4AsbTqfbVZa2gEAddMb2L/99tvm119/bf75559gvY1dBPYx/3Mc/ne56YT/3zr5f8VVP8r/n9z/n9Vr/h/kwb9r/eIPZiT23N8FEH8ToCAyEOtj/szZrLS0gw2j7q1JzDn3HjyavxPoDexfffVVkeCOHXtgwxNpMXyfnZqT/oM5oR+7f1FK/NGVNdBjyv/nu7ZTWv9hn8TvsshAnDsmdJqw0lY5sEEWnpdVseG2DgZ20jfffNP89NNPzV9//RVyp5EE9tCZZ/FXgeL/ke0Xv2V3MovBkyTbvvZPeLINf9lqJNyvFDB5orDNB3HjL6LF/BXo1EU+ubmbs4fU0j7KYFxS4LFI32aFe0XPvZg21ijKi+cPrMl8nfBprvH+PhD2sywbrp/UKX2mB/xw3tPVVzt+pG3d23o8KrCTvv76ax/c//zzz1BiPJ3AHjvXEf+qVTvg17XbTcjrbKifMIH8pDbb5+AyPgOMQvRZ/EMpsq/N/lRBdEmUD/ENgvZN//W2rO9lsIJyCYEHhh+O9dyT6SRv4prM59KnuQa2wTS5hC6r793kmiFY0/Xksb9233mWLw4u4zO2xejAzsGdXstP3blbO/bYmXIAtH2txbkEfe3gtM4Dw1j9pz99QcnKgd0tHPzknywalp3J+g5AQax5qOeeTOeOCX+tnvuKy1vnWXbCKiv99XJ1ynLW8ZjziNx1NsZ9duxWR1t2BHag+ox2Dfz6rs5X8QE97nour+kj2Cd+3on7g+ecnnsynTsmKL1GYNdlCGm3jsecR+SuszFGBfY5QZ0YFdj9Ij3htU9tcDuy7QvHj/SwUgO6P8M84R1wfPXdZjra/Lv9eI7Rdv/6UIx97jwASqHmWPI1kZiLyT2U5E1ck7k+PbdjOvMqXpZVdUZkOfN4xHmEPnej6/FgYKdfxf/yyy/N33//HXKmMy6wh2NatL0erMO5HX3tc9D3xNQ+/HhuJLo/Cfk9mcMvOHHeGDf3klj+EYa99dPtoJ5cXvR3mwsLqANeb0jH0ynOSXnPSDuRrFE0j0O5wbnKc17PfZlOrufu1fj2TaDKxIcReY3ccd95hEpvdT3uDez4d+wAAADAY9Eb2EsEdQKBHQAAtkL4Oqwj4/cu4C5kA3tJENgBAACAdYiB/XK5LCYEdgAAAGAdVtux//bfz5sTYdmheaq9Xx/Bv3/9+z+LyKoPqkeEZYe2LQ0C+wwRlh2ap9r79RH8s4JyCVn1QfWIsOzQtqVBYJ8hwrJD81R7vz6CfxyIP/35v87xkM1Ks6z6oHpEWHZo29IgsM8QYdmheaq9Xx/BPw7EFKB18JZB27JZaZZVH1SPCMsObVuaegP7j981X3z5XfODlVeJCMteTMX64Ofm7ZeH5vDqo5F3gz68bg6HF83bH428Alq8X2fqEfzjQCwDtxXELZuVZln1QfWIsOzQtqW5T2CXAWvMcaUiLHsxFeqDH969MIL6x+Zlcm2Xjv8e9XXzfshOwX2h8Un6lfrA1f3Fu59Tm6jbty/6qMouoMS/CkVwIB4K4pbNSrOs+qB6RFh2aNvS3D+w5+yFgtqSIix7MRXpAwrM6e46BkJx7fevDs3LDyI/PAjk7PwWgPNKKulX3wev3UOIaIPoF+9T0kftg8iSwT3xr0IRHIitIM7HVpptOs2y6oPqEWHZoW1Lc4fAHl4L8+7q1euwSOfs7hxayIN9yVfAU0XEtPdR73TbdLqjDP6H4PTWBc7rTljujl3QfCfLBJsMsrFszzVzO2sRHKWvaV7O3qbJhyUCaKdfqU5qBz9UJP4Z80H5WVqJfxWKkMG4pKz6oHpEWHZo29I8wKv4/uByTxEyLXe3PqBa32mzndohArW5A9ZlckE6e82e4Jv0o+rjmM7ZQzrXxplK+lX4GfuXbUkbpLTfZZX4V6EIKyiXkFUfVI8Iyw5tW5r6Azt9xp0pa7lFe4qIxCYC3ftX6tWx9J/bxW3lMjJt2WR6zDWdFg3sRn0llPSrbrNsZ7Z+BHbLDm1fGPt9SvMYgd1cvO8vIrXRrjsERNkO+bo41y6rnbky9Dnmmk43BfaYNxDIV96xU5raw19R4FW8rdr9g5YTxn6f0twvsHPAkIuwaafFW72irkSEtvnAQ78P4GCqggzl27vrzKt4WYbTo6/plHt9r8pO//Fcm17tO/aY384HblNsu8pfwi9W4l+Fqt0/aDlh7PcpzX0CuxMFDHqFnPxILmenxZ0Wc1aykN9PRMfufRW7XCduU9IuKwirdl53piI/pEdf09jV+mAo6/GBOwRML+l/zm48iBRS0q9Wm9TDit2e5ZT4V6Fq9w9aThj7fUpzt8C+BRGWvTbpnXYR5d4EFFDt/Qr/oFqFsd+nNAjsM0RY9voU/ilhqeBOQd36bruQau9X+AfVKoz9PqVBYJ8hwrJD81R7v8I/qFZh7PcpTQzsl8tlMVEdAAAAAFie1XbsAID1ePPmzSICANQPAjsAG8QKyiUEAKgfBHYANogMxPqYP3M2Ky3tAIC6QWAHYIPoQMzH8jNns9LSDgCoGwT2mnk+N8fjuXkOydt5bs7HQ3M4PYX0QjydmsPh2JznOwxmIgOxDMjSpvPZZqWlHQBQN48b2OcGvWJBc0EK+fh8PhpB/ak5Jdd26fi/t51ciplop+Besl+pD1wdR/m0oPrFty/6osruFBmI9TF/5mxWWtoBAHWDwB6SVVLERwrA6S46BkJx7afToeHYLx8Eptpdyr8diMm5+D44uYcQ0QbRL77upI/aB469B3cZiHPHhE4TVtoqBwCokzsFdrnbC0GAFutoCzvAsICfXRBJyobgwTa/iCfnhyAw5fy5+Pr1jrZNx0DqZfnG56l+Oef8n3DN3A46lG3tV189MW+qnZPHcoGVr03tuDZe+JE+tHiUP3tEBuOSAgDUzx0Cu7WjawNaErQoQQu0sCdBKlm8M4Fm9PllkLtYX1dMCNiufbP6pc9/SfaaZMoE2aT9qv9ieqo9kGv7LQg/Y/+yLWmDRPu3P6ygXEIAgPpZP7Bbi7G2UZoWZsvOaX3sAtp1Bxt2rGPPL4UIaE8n9epY+kb19vnG9JUZc03HXQK74cfN6DbLdmbr0f4BAMB+2E5g19ckxp5fDNp1h8An65Gvi7nePt+YXBn6HHNNx02BPeZNtQcW2rG3yWP8igKv4gEAoEv9r+LlAi3TdByDS3p+ZPT55fCB53S6BlPlg28bpbVv7sh8FW/5P/qajtzre1W23I/n2nTx79hDksea2xTb3mY62vxi9QMAwINxnx/P0WJNi3OQjwmJLQRcvagbwYjK+0VcXdMMdH3nl8L7kT4wcD2+Lgr6lm+EasN1ZxoQ54y+pg906a7WB0NZj3c2BEwv6f9Uu/XgNgOrTephxW4PAADsk/sEdrAqeke9KLk3BAAAAFYBgX0XtLvoxYM7BXXrO28AAACrgcAOAAAAbIgY2C+Xy2JCYAcAAADWYbUd+2///bw5EZYdmqfa+xX+QbUKY79PaRDYZ4iw7NA81d6v8A+qVRj7fUqDwD5DhGWH5qn2foV/UK3C2O9TGgT2GSIsOzRPtfcr/INqFcZ+n9I8dmD/8bvmiy+/a36w8lYQYdm97uzbI6u3XysQ/INqFcZ+n9JsP7AvGGAJy+5V0jdZbsH21KKkXz+8bg6yvdT+w4vm7Qf6vP5vc62c/Ucuc7V/8e7n6/UKKPGvQpn+UT+KPjm8+mjPJbapPox9y2VG54X8MF7JWPi6Xjcvv9TlW9nj9nPzNlf+1WtR9+vmPftCbRXXeP/K2cw2knJz6GO+3uhn8K0zX51ttA/Ob1FuqpKxN9r38kM+T45Tapc+Zdoo09LWyesZv4H79Id3L7rlB9rRnW9Wn6fnJDae11G6/WPnI8vu4zguN0qDwD5DhGX3Kunbgm2oUbpfaRHkiU/H8YY2++Rj8zK5IV1aLapzpf2rTdq/dkFMA8Z7t+j4wKf7kG06j9J8jSl5sowP4mJsrOtY5+ZklZe2bJ0v2jLZ+gbmUO68bH0TfNAPshOVjL2+NqU5iOg8Waavfp8/MI7S1ne9obqE/BxOyrqA+qrn+t6e8bP3HGGntH7Qsq6b5KnzR9czL7hr1g/soVFv6YlVLgbx6eXaYckTGndEUvZqT5/m+Brp01T3Cc8YnAkiEtsivqly9BRI16WyfoK19pcfruXsp/J5bV1TZr9ym4cCiF+U1c1YWB3/KlPqH82LzNhbfSj7OskT/TopL4jtFLg4SOqyuXNzsspLWzh+7+4/3rn5h8R3oUy2voE5lDmP7nOqJz58irLjfZg3f5Oxt/xkW6YNubax+to4qR5ZxspLRH0yYQ5LuzXfhs6Jtu5YmO1n6fNH15OxTZDmPoFdBh/dedxAX+5q9zsMX1YFLqszsotHpi5OTxRxTS/om3VMnzzZ6Zry2Jct29Y1lfZrK38juQBlP7QEhfZRWZ+Wu6yCsvyrSYl/vp/EPJCy5gTbdF6cV6JMLs8aF3GOD2w0jvo6Oj0kq7y0xeNwL3Baflq+unN755CsI0o8QJl91eODuJbfBIj0VHXGvnMt4YfVdsse589QG7kOYTN9UGWsPKmha2h/Vb2d+TbiHH9t2UavTPtZ+vyx9Xip9XqiNHfbsfc23jeQGsrHPedyWl9H2nNlvOZ1Zkwv6ZsuR8eWTefnrle5kn5lyTZaaUt081G7Cwd407+KlPjX109WHtvoU84d3fd9eVZ90i7rGHNuTlZ5qx53zIG6s8AP1WfNoaF6/doVAsAYH7gfSUP+DGh47NUDRpLnlLN38uw2dsqOvl6PknLXN5O+r3LXkHY+1p/WOX1jkZwn2m/mG+leexiXxDZemjoCu9X4KGowdbQxGTlNn7KTZbnccQERMa2vzWn6nOubVW7oOtL2YEr6laXbM7p9824YS6Z/FSn1z1iAWFYfWvOHjmUfjs2TUnbamcbX0Zkyg7LKS5s+Zj/Zbp1vSs0h4zy/05ZBwcm/qi3mwzglY29de6jeHn9GtZE1VI8sY+UlMubw0PWVPZlvY86hYznmTtn2cxl93TH19NkmSHP/wB4Cd3zFKsq9jJ3Gr0DSAfYdTddS14z2cJ3rAGXqulHENb2gb7IcX09e1zwu29Y1lfZrkGyjlZb2od3VTJn+VSTtX7sgpYvU9autdMH0Zan/dL/5nauag2PyWB17Oz+TXdHUsbLKS9uQL335fXOoc167i0zuNX5V21dHX/6NSsa+c22xJgz5pe19bZwyj6QmtD1ZN0l87uh2iPk29hw5r3vbH9L6/Im+zVmrNRUE9mCjTmf5/DAQQfHJyHd2sPEPyZw9fiem7HQO58Wny1DOS/syQURiW9C3WI7Pl/3Yd5y5Xs3q9CtJtovTsm1etLiIV3XRJq5TQKZ/Fcnyrw3uol84cOXmiO7veA3Xn/TPdfry5PW87HMGF8Yh9c4JtyDnrsf2pDxrxByy6u3UE4Kd1W6S9MHKv1HJ2HfaJ9rRyQv5Q/4mdhHQ9fW4bKceDpQhb0Lb9Rw210yvTDt4vk04p2/OJ+2ntG5PXz3aNnON0qwf2DckwrJD81R7v8I/qFZh7PcpDQL7DBGWHZqn2vsV/q2l9K1dyR3OVvXYY4/xvlUaBPYZIiw7NE+19yv8g2oVxn6f0sTAfrlcFhPVAQAAAIDlWW3HDgAAAIDlQWAHAAAANgQCOwAAALAhENgBAACADbGPwP58bo7Hc/MckgAAAMBWqSew9wVfmXdLkF4jsI+pYw0/tsbTqTnIPqM+PByb8xN96n/v6uxU0Je52o/euGeemlPsj5NLAQC2zOPt2G8JjrUEVAT2m3g6HZpTiEZ07AN1ti8piIUA73FpPnmnyP57Ph+bw877A4Cts35g97spuWughdilxULtFx/eYZAt5j035yPvPMQCz2Xlgp7YnZYOqOxj+Dy7xZTrbtdRw3cwDtm3PHfY5gtIwnwKKaD6I9tvAICtcJcdu9xB+FetlLAWb5+dBv10YcotWmQXdSTnLATXQZ+ybvkqeQ0/NorfqR+P6ZiGh6So0LdU1qdj4T2jH3Tw4APA1rnPq3gO5v5QfC/qF+Y2KCffBcqAqI/lws7nyTKETi8B19FX9xp+bJW+fs1B84zmxK4DPAI7AHvjTt+x02tpWlzcIpMNeiLA54JjbnHX9ly5knAdfXWv4cdW6evXXvYeyFT7MQcB2Dx3+/EcfY9+Op2u3zXzguM+T9cvyt0DQPgFNC9GVC4uVG3w727IyH79vt1/Z7/0Yib8TxZOmU58B5Po61cJ2eWEyJXbEfjxHAD74m6B3S+45k6Cd+qtrF9A83eo3R/POXE5fg1L5egBYunFnX1Uvvb6DsZj9SuPeRQ9zKU/Ukx+ULlb5D2FB0sAts79AjsAAAAAioPADgAAAGwIBHYAAABgQ8TAfrlcFhMCOwAAALAOh/AJAAAAgA2AwA4AAABsCAR2AAAAYEMgsAMAAAAbAoEdAAAA2BAI7AAAAMBmaJr/A4TZ3a1Sta7JAAAAAElFTkSuQmCC;" vertex="1" parent="1">
          <mxGeometry x="70" y="740" width="502" height="112" as="geometry" />
        </mxCell>
        <mxCell id="aRsgU26TpFkdN7H3gEH3-8" value="" style="shape=image;verticalLabelPosition=bottom;labelBackgroundColor=default;verticalAlign=top;aspect=fixed;imageAspect=0;image=data:image/png,iVBORw0KGgoAAAANSUhEUgAAAfcAAAChCAYAAADa1fZ5AAAAAXNSR0IArs4c6QAAAARnQU1BAACxjwv8YQUAAAAJcEhZcwAADsMAAA7DAcdvqGQAACJNSURBVHhe7Z2/jtzK0cXnoSRAkzr3AzhaLOCdRzDgxEoUKNK8gtNNlGmfQokAR9rkJhMZF4a/C1zj2pb5sZpdPdXFav4ZNske8vyAg2EXm2R1N6cPm7NX9/CPf/xf9de//hWCIAiCoDuWJJj7P//5z1m1xDUgCIIgaK+SROY+J/qpYitcLhe/BXJSer8iP1AqGPt9oscd5j4RfJHmAeY5DdyX+wVjv0/0uMPcJ4Iv0jzAPKeB+3K/YOz3iR53mPtE8EWaB5jnNHBf7heM/T7R437f5v56ro7Hc/Xqi4FUfAbwRZqH7P3K90Sme6P0cZ8tv5dTdTgcnE4vPjaEBb+Tewdz0j7R416GudMX308YV52ql74JIbV/wYkk/UV6rc5H3aZGxzOmuD46Jyh/v0T9OPReyXRv9OYnr+ENcZQZTmRI/8l7clhuL9XpcKxuun1ln2QaA2AzduwPfWOK8boL9LiXY+633Dyp4xa8GTu/SAy+HKPpN89TdTqKSamvj3l/prHoz89fg7ZvNcQJDM6PcDkOMHhXr37o9sVR6D7JMAbAZtTYDwHjdRfocS/b3PWEoJ80k/trLXQzdn6RmFb7mlX9dTL1K6IXqkemdW1HqGO1f8MMmqBoRcwdxDHd1zqu99/IoPzoU4+Vi+lxTNwPE5IcPcHLmJkj5cSxWnXdl/PxWuZ6+txcDvH4jRbeYuVn9Ng7mvEN4+HuARpTNV6nkzv+fKJy86D3at0HYHH0uN/Ja3m68cSKgePRfmWE5g2cn84vEmPlI42Jt6me/HK417nU7kT7fXGLDJ2gXupJxnUjx3Tf6LjefyP9+R3jsXR0jKN1P0xg/ATPuXXk2NV38h6Wdbg89DxgMr1jr+daOS5u7MnQxb2rx07OtZoM9y64DT3u97Fy9zdUdEPSTSj3y+NT55uBzi8SY+ZznURbBuX2E1Sn/pLRit5qv6+1RQabE2/rT1expm//jfRPoPW4neuJTueSHEfjfpjA4P4L+Ot35aiP03Wt/uWyjOs6ICvjx/4Kr8KTf89iHU8xfR/4XWA59Ljfj7mP2Z+qPwOdXyQmkU8ziYuVUqueMPeF2lMKYyYompBOZx9L3Qv60+++laH5ucmSnbrn2q37YQKjJ/gh/SP30bZ8M5E63orrOiAro8de4t4WjjB3Klv3gS+C5dDjfie/udOEZ6xmov3XG8xNqAvdYJ1fJKarffKLpOvRF62r/Rtm3ATV9E9YOQpzDPcCH9M69jaG59f8ZtmMcc84utzVxHojt/Rfk1dHjvI4dY6on7v6vwlGdUBexo29hMaexoU+lWHzeOnjVXnJuRfE6HG/0z+oExM57/dPnO6p0//RxxI3WOcXiUm1r460ftuSbZQToNV+v2uLjJ6gwoMQ7a4nGN9P4V7gY5JjMY5bzNOZduc4qvthAr35yRzkRE6kclTtojcNXEd+5zr7vzk0HJvjQQbEjBt7Eo2/eqhz8+l1/gnjZcytqfsALIse9zLM/Y7p/CL1IQzJoSbAPTOpXxdglvz0/TCB0vsPzAfGfp/ocYe5T2TKF6n5jdUXCJh7oPQJao78WvfDBDDB7xeM/T7R4w5znwi+SPNQer8iP1AqGPt9oscd5j4RfJHmAeY5DdyX+wVjv0/0uMPcJ4Iv0jzAPKeB+3K/YOz3iR73YO4QBEEQBN2vJFi5A7BR3r9/P4sAAOUDcwdgo1jGnEMAgPKBuQOwUaQZ623+TMWssowDAMoG5g7ARtFmzNvyMxWzyjIOACibTnP/9ddfq3/961/Vjx8/fOR2YO4ALIs0Y2nKMqb3c8wqyzgAoGx6zf2Pf/xj9fe//73673//66O3sQtzH/IvzOFfoRuP//ewo3+HXPWj/PfM3b9xveS/We7zu15f/E82onjq/yMg/h8CGZFmrLf5MxWzyjIONoz6bo1iyrFrcG/5jqDX3H/3u99lMXis3D0bvplmw/XZqTrp/8mO78f2/4lK/I9alkCPKf8b8TpOZf0/A4ryzos049Q2ocuEVbbqgQ0y831ZFBtu6yBzJ/3hD3+o/va3v1X//ve//d5xRObuO/Qs/m9C4d/UdhPgvCua2eAbJdm+5n//yTH8H7EGwv1Kpsk3CseckRv/J7WwfwFa16Kc6ns3FfeluXOUhpxT4L6I32r574q+90LZmKNoXzi+Z07m8/hPc4533wMRP8u6/vzRNWXO9JDvj3u55mr7R9zWvc3Hg82d9Pvf/94Z/G+//eZrDKdl7qGDa8L/DasZ9Ov8Xd+U1zuifPxN5G5ss301XMftAIMQfRb+5yqyr83+VEY6JyqH8CZB56b/r2/J3PNgGXMOgTuGH5D1vSfL0b6RczIfS5/mHNgYanQKXVd/d6NzesOm88ltd+6u46xcariO27EtRpk7Gzy9oh+7grdW7qFD5SDo+FITdA662sFlvQ/0Y/Wf/nQVJQubez158AogmjisOJPMHYCMWPehvvdkObVNuHN1fK+4vnWcFSesujJfp/qasp61PeQ4InWejbHeyt3qbCsOcweqz2j1wK/yynwt79Hjru/lJXME+8Tdd+L7wfecvvdkObVNUHkJc9d1CBm3toccR6TOszEGm/sUYycGmbubqEe8AioNbkeyfX77nh5YSkD3p79PeCUcXoM3O2ua/av9QR2j4+5Vohj71HEA5ELdY9FPRuJejL5D0b6RczJfT9/boZx4LS/rqmsGZD1ze8BxhD52o/PxIHOnv5b/6aefqv/85z9+z3iGmbvfponb6c46ndvR1b4a+t2Y2oc/qBuI7k9C/m5W4yadcN8YX/A5sfIjjHiTZ72Seqn3hXy3ObmAMuD5hnQ8ncI9Kb8zMk5EcxTdx75e773K97y+92U5Ol/9XQ1v4QSqTnggkedIbXcdR6jyVufjXnPHf+cOAAAA3Be95p7D2AmYOwAAbAX/01hLxt+/gFXoNPecwNwBAACAZYjM/XK5zCaYOwAAALAMi67cf/7lx+ZEWHFomkrv13vI709//ssssq4HlSPCikPblgbmPlGEFYemqfR+vYf8LGPOIet6UDkirDi0bWlg7hNFWHFomkrv13vIj83419/+19rui1lllnU9qBwRVhzatjQw94kirDg0TaX36z3kx2ZMJq0NXBq3FbPKLOt6UDkirDi0bWnKMvdvn6o3bz9VX619tyj3+QwRVjybsrXhe/Xh7aE6PH4x9tX6/FQdDu+qD9+MfSto9n6dqHvIj81Ymrdl5FbMKrOs60HliLDi0LalgblPFGHFsylTG75+fCeM/Uv1EP23qd7UyeBn7q+hivqV+qDO883H73FM5OraJ9oU1Z1BUX4FimAz7jNyK2aVWdb1oHJEWHFo29LA3CeKsOLZlKUNZOZyVU7lp+q5Va9Z3T981vHlFfWr64On6uGtaIPoF2fsUR81Dy9zGnyUX4Ei2IwtI+dtq8wxXWZZ14PKEWHFoW1Ls465h8n6utJyhiKNjLb9vrCydDFpSsKkUvWXNPeO/OKVZZzfh0eK8XGNMXHdh4+yjo958x18ztaKPGXuzTnnXvUOUatfKX9qB799CGNLbRGmr4+RsYyK8itQhDTknLKuB5UjwopD25ZmPXOXE7L7vbc2m2jCFuYjJurn2rTCyjJM9on6M0/wJEKW7fyu+6O46wdR31o56zp0rNWm5Dktw44fIKJ9qZwXVtSvYhxD/3JM7JPHdz3A5FCUX4EiLGPOIet6UDkirDi0bWlWXLnLCdmvvj6LCVuYTyM/UQvzeX4Uq1WrfnLizyciiln5UVznaBmTlW9XnSHnrNW9Gvd9L/PUOaygqF91m2U7k/nC3K04tH1h7PcpTbnmbk7YJFrd0qRdH8N1UvU7z5NHRBxL5GcZqM7PyjdVhz6HnLNWt7lTvuI8ha/cqUzt4Z8r8FreVun5QfMJY79PacowdzIUKoc4Tdjq9bSQm9wfn4RhJerPPMGTCB1r5WeYk73KTryWl3W4PPictbh/RTlcg+qLFS6dJ/0gsJyifm21qRlvblNou9o/Zzui/ApU6flB8wljv09pVvzNXbxOZnORk7iuIydvZUjmOam+PN9MIlpxIz/6rZhze0PGn8pPteO6QhX7fXnwOfXqVl8jPEwYDxcrKepXq03qgcUZvNmmeRTlV6BKzw+aTxj7fUpTyGv5+xVhxUuTM7++1+16hb+iSu9X5AeVKoz9PqWBuU8UYcXLU7MqTxo8Gbv12/VKKr1fkR9UqjD2+5RmHXPfkAgrDk1T6f2K/KBShbHfpzSRuV8ul9lE1wAAAADA/Cy6cgcALMf79+9nEQCgfGDuAGwUy5hzCABQPjB3ADaKNGO9zZ+pmFWWcQBA2cDcAdgo2ox5W36mYlZZxgEAZQNzB2CjSDOWpixjej/HrLKMAwDKBuaek9dzdTyeq1dfNBlSB8RQnx0O1fEsek314+v5GP0LdVHdnSLNWG/zZypmlWUcAFA2MPelgbmPx/XZqTodj1XwbNGPztijPn2pTjD4yIxT24QuE1bZqgcAKJN1zD1M1teV1umFd8kVmJ/M/UR+PlHsVL1E5fh4VzccX9f14UVgw0nm91qdRZuxuhwI9+vLqTpcb5Qm5oxcmD4T9u8Xacg5BQAon/XMXU7INGlbRsyTuavfNvBQpnpholcPCqHSArChJPOr4TpuBxiE6LOX+oHJ9avsa7M/6V5Y+OGuMCxjziEAQPmsuHKXE7JYfdG+2hh5detMUddPla34khN8Vx5c1vtAP1b/6U9XUQJzBwDsl7LM/aWOyxV9agJPla04zP3+UX1Gb2ROZ46JB0MJ+hkAsGPKMHd+bW1M4qNW7m6iL+S1fCpf2saKchy6P/04808d4T5pdtY0+/E3DQCAvbLib+7i1bswO/pNlePH06nfLAlZjs69sIlyHj35chthPgPR/UnIv2OocQYfxl38vQMAAOyQQl7LAwAAACAXMHcAAABgY6xj7gAAAACYjcjcL5fLbIK5AwAAAMuw6Mr9519+bE6EFYemqfR+vYf8/vTnv8wi63pQOSKsOLRtaWDuE0VYcWiaSu/Xe8jPMuYcsq4HlSPCikPblgbmPlGEFYemqfR+vYf82Ix//e1/re2+mFVmWdeDyhFhxaFtSwNznyjCikPTVHq/3kN+bMZk0trApXFbMavMsq4HlSPCikPblqZsc//2qXrz9lP11dpXiAgrnk3Z+uB79eHtoTo8fjH2dejzU3U4vKs+fDP2zajZ+3Wi7iE/NmNp3paRWzGrzLKuB5UjwopD25ZmPXOXpjVku1ARVjybMvXB14/vhLF/qR7Ev+Z2NW8Zf6qe+Xgy+IXHIepX6oM6pzcfv8cxkZNrX8hd1Z1BUX4FimAz7jNyK2aVWdb1oHJEWHFo29KUYe6peCZjm1OEFc+mLH1Api1X31QW5u31/HioHj432/HDQLPq531LKOpX1wdP1cNb0QbRLy7XqI+ah5Q5DT7Kr0ARbMaWkfO2VeaYLrOs60HliLDi0LalWcnc/StiXmU9PvmJOhWvj6HJ3MfXeE2cEhHKLkdpmlcTjVeWPn9vUB9qU72ulOXquTbUj7KOj0kDDnU7ztlaeVvmrmLCPPlac6+GpVr9SrlQO/iBI+RHeRv3g8o/t6L8ChQhDTmnrOtB5Yiw4tC2pbmT1/LdxrOmCFmWq19nqtZv3ByndgizNlfIuk7qFXnynJYxxw8QzT5t+KqcastMivpVjHfoX46JffJ4+wEmn6L8ChRhGXMOWdeDyhFhxaFtS3Mf5k6fwowazTdxjxERxYQJPj+q18gyf24Xt5XryLIVk+Uh56zVveomE6Q8e8zdym1GRf2q2yzbmcwL5m7Foe0LY79Pae7H3M0JfH0RcYxW32QqtbnIdshXx6l2We1M1aHPIees1W3ulK9h7vo8hazcqUzt4Z8r8FreVun5QfMJY79PadY1dzYTORGbcZrA1evqQkTomDMf+nsBNlRlNLTfXmUnXsvLOlwefM5a+lV+XQ7XoPq+v9N/UNeU0w8I+RX1a6tNzf3AbQptV/vnzDfKr0CVnh80nzD2+5RmPXOvRWZCr5OjP5xLxZ0J+dfPpGgyX09EKy4Mk2PcpqhdlhGrdl5XqGK/Lw8+p17d6muEhwlvmk4yf+OhY2ZF/Wq1ST2wOIM32zSPovwKVOn5QfMJY79PaVY19y2IsOKlSa/ER0mv/BdQ6f2K/KBShbHfpzQw94kirHh5albfow2ejN36TXtmld6vyA8qVRj7fUoDc58owopD01R6vyI/qFRh7PcpTWTul8tlNtE1AAAAADA/i67cAQDL8f79+1kEACgfmDsAG8Uy5hwCAJQPzB2AjSLNWG/zZypmlWUcAFA2MHcANoo2Y96Wn6mYVZZxAEDZwNxL5/VcHY/n6tUXb+e1Oh8P1eH04ssz8XKqDodjdZ6eMJiINGNpyjKm93PMKss4AKBs7tvcpxpfNuOckUw5vp6PV2Onc4p/ze0YnPilOoX4qS4xI+Nk8Dn71ed7zbNG9YtrX8hF1d0p0oz1Nn+mYlZZxgEAZQNz34W5kwmL1XRtvtcF/HXfy+kQ4vJhYGy8Lrm3BKE4FdcHdc5H0QbRL+7aUR81Dx17N3hpxqltQpcJq2zVAwCUyYrmLld93ghowg4xvxL0k/i5NpKorjcQjrmJPDreG8GY46firq9Xtk05XllaufFxql/OqfxHnLNzJU39QMdec3X487y6fMbEuXjMZ658bmrHtfEiD2H6jMpnj0hDzikAQPmsZO7Wyq4xtci4qECTtIhHRhVN4AmzGXx8HuRq1l0rFAQc17lZ/dKVvyR5Tgp1GG3oA9V/oTw27km1/RbEOIX+5ZjYF6Pz2x+WMecQAKB81jF3a0LWMSrT5GzFuay3a1O7rmT9ynXo8bkQpvZyEitKnR9dtys3pqvOkHPWpM2dDJBzTJn12LjHasut6DbLdiavo/MDAID9sC1z1+ckhh6fDVp9e/OT15Gvjvm6XbkxqTr0OeScNba5k/nJ19kpcx4b98y0cm+Kx/BzBV7LAwBAm/t4LS8naVmm7WAw8fGBwcfnw5nP6XQ1VJWDaxuVdW71lvla3sp/8Dlr9Kt8qmMYYr4/qGvK2X9z90Uea25TaHuzs6bZn+36AABwZ6z3B3XOYK6vlJ0vRDFvunpiV2UyGKrvJnJ1TtPsuo7Phcsjfmjg67hrkfFbuRGqDdcVqkccM/iczuyuZu7MUFzDHe92etN0kvmPjVsPbxOw2qQeWHSbsl0bAADukPXMHSyKXlnPin5TAAAAYFFg7ruhWU3PbvBk7NZv4AAAABYD5g4AAABsjMjcL5fLbIK5AwAAAMuw6Mr9519+bE6EFYemqfR+RX5QqcLY71MamPtEEVYcmqbS+xX5QaUKY79PaWDuE0VYcWiaSu9X5AeVKoz9PqWBuU8UYcWhaSq9X5EfVKow9vuU5v7N/dun6s3bT9VXa98CIqy408q53bM6+7UAIT+oVGHs9ynNPsx9RpMlrLhTztxkvRnbU4qifv38VB1ke6n9h3fVh8/0ef1X6RrV8W9c5xp/8/H79XwZFOVXoMz8qB9Fnxwev9j3EsdUH4a+5TqD9/n9fryisXDXeqoe3ur6jexx+159SNV/fBLXfqqeORdqqzjH82MdM9tISt1DX9LXDXn63Fr3ax0bnEOdt6g3VtHYG+17+JzeJ8cpjsucEm2UZRlr7esYv57v6deP79r1e9rRvt+sPo+PiWJ8Xwfp9g+9H1l2H4dxuVEamPtEEVbcKWduM7ahROl+pYmQb37aDl9qs0++VA/Rl7Iuq4l1qnR+pUnn10yKsWk81xOPMz/dhxzT+6jM5xizT9ZxRi7GxjqPdWxKVn0ZS17zXVMneb2eeyh1XPJ6I3LQD7MjFY29PjeV2Uj0Plmn6/puf884yljX+fquJeTu4ahubaqPHed38USenceIOJX1w5Z13mifOn7wdaYZvGYdc/cN+0BPrnJCCE8x106LntS4M6K613j8VMfniJ+q2k96xgCNEBHFZslN1aOnQTov1XU3WRN/+HytZz+dT2vrkjL7ldvcZyJuYlZfyMxq5VeY4vzovkiMvdWHsq+jfaJfR+3z4jiZFxulrps6NiWrvoz57ef6+8crOPeg+NHXSV6v5x5KHEffc7pOeAAVdYfnMO3+jcbeypNjiTak2sbqauOo68g61r5I1Ccj7mEZt+63vmNCrD0WZvtZ+vjB10nERkiznrlLA9IdyI109a5xt9JwdZV5WR2SnEAS1+LySBHX8oy5Wdv0yTc8nVNuu7p527qk4n5t5L5MtUnZDy5evn1U15XlaiujrPxKUpSf6ydxH0hZ9wTH9L5wX4k6qX3WuIhjnLnROOrz6HKfrPoyFrb9d4HL8tPKtT628x6S1wgSD1FmX3XkIM7lFgKiPFatsW+dS+Rhtd2Kh/unr418DREzc1B1rH1SfefQ+arrtu63Ace4c8s2OiXaz9LHD72Ok5qvR0qz6sq9swNcI6mxvN1xLJf1eWQ8VcdpWoeG8py56Xq0bcX0/tT5ClfUryzZRqtsib6A1O7MJm/mV5Ci/Lr6ydrHMfqU947u+6591vVkXF5jyLEpWfWt69TbbNatSb7vetY91HddN3d5ExiSA/cjqS+fHvWPvXrIiPbVSsVb++w2tuoOPl+HonrXN5Sur1LnkHHe1p/WMV1jER0n2m/uN8qdcT8uUWy4NOWYu9UBQdRo6mzjhuQyfcqOlvVS2xlEhLI+N5fpc2puVr2+88jYnSnqV5Zuz+D2TfvSWDLzK0hxfsYkxLL60Lp/aFv24dB9UipOK9TwajpRp1dWfRnT25wnx63jTal7yDjOrbilMdRyr22z5TBM0dhb5+67bkc+g9rI6ruOrGPti2Tcw33nV/HofhtyDG3LMa+VbD/X0ecdcp2u2AhpyjB3b97hdauo9xA6jl+HxIPsOpvOpc4Z4v4810FKXOtGEdfyjLnJenw+eV5zO29bl1Tcr16yjVZZxvtWWRNl5leQdH7NpBRPVNefueJJ09Wl/tP95law6h4cso/Vijf3Z7Q6GjtWVn0Z68ula3/XPdQ6rllNRt81fm3bdY2u/TcqGvvWucWc0JeXjne1ccx9JDWi7dG8SeJjB7dD3G9Dj5H3dWf7fVkfPzK3KXO1phBz9zHqeJbb7wfDKzwhuQ73Mf7jsjoefiNTcTqG94WnTF/PSecyQkQUmzG3UI+Pl/3YtZ04X8lq9StJtovLsm1ONMGI13YhJs6TQWZ+BcnKrzF40S9sXql7RPd3OEfdn/Sf8nTtk+dzso/pnRz71HlP1JNy6nwcj+qzBtxD1nVb1/GGZ7WbJHOw9t+oaOxb7RPtaO3z+/vyjeLC1PX5uG7rOmyWft+Itut72JwznRLt4PttxDFd93zUfirr9nRdR8cmzlGadcx9QyKsODRNpfcr8oNKFcZ+n9LA3CeKsOLQNJXer8hvKcVv73KudLaq+x57jPet0sDcJ4qw4tA0ld6vyA8qVRj7fUoTmfvlcplNdA0AAAAAzM+iK3cAAAAAzA/MHQAAANgYMHcAAABgY8DcAQAAgI2xH3N/PVfH47l69UUAAABgq5Rl7l0GLPfdYtRLmPuQayyRx9Z4OVUH2WfUh4djdX6hT/3fw9ZxqujqXONHF9wzL9Up9MepLgEAtsx9rtxvMchSTBXmfhMvp0N18o5E286sk31JRuZN3lGX+eCdIvvv9XysDjvvDwC2zjrm7lZVcvVAk3FdFpO1m4B4pUGxsO+1Oh95BSImea4rJ/UoXmtuU+Uc/ee5nlD52s1cauQOhiH7lu8djrkKEn8/+RJQ/ZHsNwDAVlht5S5XEu61KxWsCdztjo0/npxSExfFxTWiY2aCr0Gf8trytfISeWwUt2I/HuMx9Q9KQb5vqa4rh8p7Rj/s4OEHgK2z3mt5NnS3KX4ndZNzY8zRb4PSFPW2nNz5OFmH0OU54Gt0XXuJPLZKV7+moPuM7oldmzzMHYC9seJv7vSKmiaYeqJJGp8w+ZRBpiZ4HU/Vywlfo+vaS+SxVbr6tZO9m5lqP+5BADbPqn9QR7+rn06n62/PPOnUn6frD+f1Q4D/y2iekKhemKyaB4D2wozi19/f3W/4c09oIv9o8pTlKHcwiq5+lVBc3hCpejsCf1AHwL5Y1dzdpGuuKHjF3sj6y2j+TbX9B3W1uB6/kqV69BAx9wTPOapcO3MHw7H6lcc8iB7o4j9cjP7IcrfI7xQeLgHYOuuaOwAAAACyA3MHAAAANgbMHQAAANgYkblfLpfZBHMHAAAAlmHRlfvPv/zYnAgrDk1T6f16D/n96c9/mUXW9aByRFhxaNvSwNwnirDi0DSV3q/3kJ9lzDlkXQ8qR4QVh7YtDcx9oggrDk1T6f16D/mxGf/62/9a230xq8yyrgeVI8KKQ9uWBuY+UYQVh6ap9H69h/zYjMmktYFL47ZiVpllXQ8qR4QVh7YtzX2Y+7dP1Zu3n6qv1r6VRVjxbMrW9u/Vh7eH6vD4xdjXoc9P1eHwrvrwzdg3o2bv14m6h/zYjKV5W0Zuxawyy7oeVI4IKw5tW5qyzD1lZDD3yW3/+vGdMPYv1UP418pIbN4y/lQ98/Fk8Av3f9Sv1Ad1Tm8+fo9jIifXvpC7qjuDrPz0g9PzYx2jHK0x5Ji1L4MINuM+I7diVpllXQ8qR4QVh7YtDVbuE0VY8WzK0nYybbn6prIwby8yo4fPzXb8MNCs+nnfEor61fXBU/XwVrRB9IvLNeqj5iFlToMflt+7JkdrDDlm7csggs3YMnLetsoc02WWdT2oHBFWHNq2NKuZe7zS8pOinOhoO+z3KyBxfCkiQtnlLE3zaqJd7f1AK7xwnFw914b6UdbxMWnAoW7HOVsrb8vcVUyORS261tyrYalWv1Iu1A5+4Aj5Ud7CVPUxMpZRVn7Poo/cg5Ifu7XNPbes60HliLDi0LalKWPlzpN2mOgagwsrxZkmwBwiZFmufkO7xP4oTu2S7bRWyLpOy6hF3DynZczxA0SzTxu+KqfaMpOifhXjH/qXY2KfPN5+gMknOz9/TZ2blWPXvgwiLGPOIet6UDkirDi0bWnWM3ea1ITBRL9N6glvpgkwh4goJkzw+VG9pk21l4+12tlVZ8g5a3WvusmQKM8ec7dym1FRv+o2y3Ym81rD3JuHDxqL3geQ3vynKcoP2pUw9vuUZh1zpwlNvkrVE52e8GaaAHOIiGO0+iZTqc2Fc+5rLx9rtTNVhz6HnLNWt7lTvoa56/MUsnKnMrUnvPIODyfXY61jciuZH21zP3LcyqVrXwZF+UG7EsZ+n9KsZ+5iQqPJOl51xhN22M/HFyRCx5z5PD5dDbW3vXxs4rW8rMPlweespV/l1+VwDarvzSj9B3VNOf2AkF9Rv7baRPeHf1NRl0Pb1f458+3OT8fbDyChf1PHTlSUH7QrYez3Kc1qr+X59SXpDRkhTXByoiND0vvF8aWIaMWpHeqVcG97We7Ya93rClXs9+XB59Tmoq8RHia8aTrJ/Ev4a3nVJvXA4szSbNM86s1Px1Wfh9x1XN03tyrKD9qVMPb7lKaMP6i7YxFWvDTplfgo6ZX/Aiq9X5EfVKow9vuUBuY+UYQVL0/N6nu0wbs3KMZv2jOr9H5FflCpwtjvUxqY+0QRVhyaptL7FflBpQpjv09pInO/XC6zia4BAAAAgPlx5g4AAACA7QBzBwAAADYGzB0AAADYGDB3AAAAYFNU1f8DrVovyO9qDDsAAAAASUVORK5CYII=;" vertex="1" parent="1">
          <mxGeometry x="69" y="920" width="503" height="161" as="geometry" />
        </mxCell>
        <mxCell id="aRsgU26TpFkdN7H3gEH3-9" value="" style="shape=image;verticalLabelPosition=bottom;labelBackgroundColor=default;verticalAlign=top;aspect=fixed;imageAspect=0;image=data:image/png,iVBORw0KGgoAAAANSUhEUgAAAZYAAAB2CAYAAADry7WgAAAAAXNSR0IArs4c6QAAAARnQU1BAACxjwv8YQUAAAAJcEhZcwAADsMAAA7DAcdvqGQAABanSURBVHhe7Z2/zty20sb3omzA26bPBaQyDMR7CQc4KY4bF66yt5DWjTvvVaQJkCpvkyZV8OEg34fjwPlz9GkokhqOhhK1IiVK+/yAByuOKGk4kmZErb3v6d///t+G9J///A5Bm+qbb76BKpJ2jiAoRSgsEARBUFahsEAQBEFZ5QvLd999B0EQBEGTmiIoLL/99ltRrXEMCIIgqKymGBSWkqRUuiPxyy+/2CWQk9rjCv/WBffZuqTEG4WlILjgy4DEvYyjXZe4z9YlJd4oLAXBBV8GJO5lHO26xH22LinxRmEpCC74MiBxL+No1yXus3VJiff+C8vTtTmfr82TbXpi9hXBBV+G7HF110qma6b2817Mv9ulOZ1ORpebtaWwMO64z9YlJd71FBa6uOxF2evS3KYuutj6TEliCfET8NRcz3Ksnc7XLT3eB6MXtr2OgjimXkOZrplJ//gxbDKelYgXkhI/fk2m+XZrLqdzc9fly2NyxzmYO57TlJ93+PBIjMbbUldhuedkxrar4OJIOQG4iOcznbgvzeXMksdUjN36TOdi2j97DFq+NxkvINk/wviYUFxMv/ZB0DZnIWMy8xzMGk8K92zzQKTktfoLi7zo5FNHdH2rjS+OlBMwHHc3m+lvZPskeKN+lDD78fk+WlwOTFIioZmAC5CzyVhLu1x/J0n+0ac8V8Ymz2Pkeljg5OxEzG2qj+STs7Vq+96u577t+sl9u7a3hzP51Nn77PEYOp/9Mcy4yE/hw+Vitr9eqN0VzidtbA9ESl7b0aswuhDYE5GzB+tFslUvqPVIOQGqnzwpumXqxy9i8wqF4hGJi20ekdREcmuTgQmjs8nYSLtcfyfT/p3Dc2kYOY/a9bCA+YnY+Tbi41js+DXM+7h26n4iTI5H5hV+LDMeKibsfEh/eF6RZDgfeyMlr+1nxmJPcHCB0EXB1/PtY/tbkZQToPvZ38CD5GjWE9SnvRloJqPFxfY6IsmJ0S3LT9OxZWr9nUwnuva8XduEJH2JnkflelhAcvw89vhjPsrtZF8tvq7N7bJPAvPH0+NmH9Hv5LTtySbHZlc9Ail5bV+FZc76WP8VSTkBMT+7BMKeEAf9WGHZeJxrMyeRUOK4XK0tdo3IT7v6XlL9M0nNVYmJYw+uhwXMTsQp8eHraJnPyGLba3bZJ4HZ4+GYmf+MwkJtbWy2+Qik5LUdfcdCN5XytBas70+4uWk3PuEpJ2B03PyCl/3ohhiLy4GZl0i6+PgnZpaY/TXithlsex/p/nXv87tzPHEeje8iAd7JPfHr/BrxkW8n9hHEeSz+nTHok8K88XBoPHQs+hTFwvkgtxftGvLM2qTktR1/ec+ShVtvnz7ME4j90m3LE55yAqLjbi2D97587Pzm0+JiVx2R2YnEF2Fa3SYCGyd/jbhtoudiHvckblMwRs+juB4WMOkf94EnXCLmoxgXzbBcH34vjsa/29Rvm1pE542HRGMSRdLkjv6e8j4oeSQ2tkchJa/VU1gOSMoJiMKSoUHcfI/MoriuQBH/5PWwgNrjN5ejjad2UuKNwlKQJRd8907dNggUFk/tiaSEf4PrYQFHS8RHG0/tpMQbhaUguODLUHtc4d+64D5bl5R4o7AUBBd8GZC4l3G06xL32bqkxBuFpSC44MuAxL2Mo12XuM/WJSXeQWGBIAiCoClNgRkLAA/ImzdviggAAoUFgAdEKwo5BACBwgLAA8ILgVx2nzGb1uZ2AFBYAHhAZCFwy/wzZtPa3A7AZGH59OlT8/vvvzd///23tdwPCgsAdcALAS8I3CbXO5vW5nYAkgrL119/3fz666/NX3/9Za33MSgsj/S/yVPGiv9dPx+KGf1mE/9dKRFH/vtU5vedcvzgVirWv/747McNA3vsd+HYb8JlhBcCuew+Yzatze27Q1wvs1iy7Ras5G9SYfniiy+yFJeHLiwpIB7zMTGL/yni4a/Psh99XAN5Tt1vfkk7teUPiwZ+54UXgtgyIduE1tb67YbCsa6KlcaaXFhIX331VfPjjz82f/zxh107j7CwjP0J0E7+t5HMTefsZZ7giuNOqP0cjlPEY82n6j3j4koJ210w/uYRP4fu8OtXYHAs8qm9hmN22yrtIy8GOVUD4QzVnn8ZT99W7jta57efyDduP/ZTzV/m3DK7/ftA/M8dh8fkPvd/jvxy633Vc2M41i1zzKzCQvryyy9Ncfn8+bPtkc7ojMUGyAfM/5prd1L6nNFeNP0Z2w9urNFxtvB4gDRYzPwPNfJYq/EUSbwkwgc/g5K+yV8vjvqeB60o5FB1uAcOGU/eDtbNzDduW/pU7+sumQe7kH3l9Rjs0xYL2h9fNvse207zpcX1MSvKMbuwuOJCr8XmzlwmCwsfMA+StK+VFHIyNh7XluvANFr85KfpyFm5sLQ3uXtKDG5wze6I+g4m0WIr48nbsWXC7GvkWnH9te00O6H15f4atcfk/bTllO2I2H4KUteMRQuGZkdhAQ4RM3rC9H+K2BQQ+5THWTPOsWPJ8y6v6TV9PBImluycuzjKePJ2bJmg9hqFRfYhuF1bTtmOiO2nILMKy5KiQqiFxZ20aDBmTk1rxY0nOk67vMeiuSUynvZ6cTMA/+qpW9nSrd/sy3uHtJtXHezcx7YD44i4Ba8eWXyD6yJYNzPfuOPJ8+XbkVdhvK84pof3U5cTtiPktivkmOTCQv8q7Oeff27+/PNPu2Y+g8LSEv0ToINgsKme6bAz3Hj4uAjR9vFYK/HtHRlPgr9TbjHJwV8/yo1YEs0/QrF3frZP27d2nfd3p9f7hrh7iMTzCr8OZL4J7js6N7bfZPzdeZTnk7eD/bXXn59RM0QfXwz5PmLLY9sRor1GjkkqLMX+HwsAAIDDkVRYchQVAoUFALBP7CvWgZTv8MB0YckJCgsAAByfQWGhvw5WSigsAABwfFafsfzP//39MCI0O7RMtcd1D/7945//KiLteKVFaHaojFJAYSkoQrNDy1R7XPfgn1YUckg7XmkRmh0qoxRQWAqK0OzQMtUe1z345wrBp8//HSxP2bS2k3a80iI0O1RGKaCwFBSh2aFlqj2ue/DPFQIqELJ48KKh2bS2k3a80iI0O1RGKaCwFBSh2bPph2+bZ8+/bb7X1s3ST83b56fm9Oqjsm5EH143p9OL5u0PyrqCKh7XhdqDf64Q8MKhFRHNprWdtOOVFqHZoTJKYdvCIhNjtkRZhwjNnk2Z4vX9uxd9UaF9sn+n/+zdT7bfx+alt79u3rvtqbisfM6CuFp/ez+tjflkxud9F30LKPCvQhGuEEwVEc2mtZ2045UWodmhMkoBhaWgCM2eTVniRQWDzTraQvHyw3Dd+1cnbw8KkZ3t9NuUVxBXE4PW5+dsDCwuxtcgRl2BLFlcAv8qFOEKgVZE3LLWdjbZdtKOV1qEZofKKIUNC4t9/eKfIj+q7UGS++ASSd/X96GEYm1bvKKRInzb+Mae9M14unb4RG39tsnxbZvQ+xlClxT9uN/xPtbGk7/vO7LP0RkHnSPatvfV2FnipjYdq/QsgGsQV/KFxsFnXcY/e83I60D4n1uBfxWK4MUgp7TjlRah2aEySqHuGQtPFm6Z+vBkQXaT9MaT3xYieJs/9Qdj4wrGyQurMjOQfWhbbczRfU4UBR9DEVvZjo2lkIK4svPs4+tsbB3ffuB/ZgX+VShCKwo5pB2vtAjNDpVRCpW/CusTwCBpBH3aQkMzGf+E7lQueaSICGwsAb9/xYojjYn7rSXFwbgVG2+n7LNVvLDYuBofZSIWbc23ggriKsfMxxn1S44nrwL/KlTt/s3V0cZTu1Ko/juWrqCwRDDoYxOgeUWmJZHtRIQ2mnXQOFqfna80Hj4Dc+NLiM3AxrdN2WcrvbDYmLrtpwpJJTMWatN43CtCvArTVbt/c3W08dSuFLYvLDJhySdJY2Nftsqk4F//UBIJX/NsLULaTOJ79To6Hlqvzy4ir8J4H9dO3mcrHz/bpj5KMo5/ed+1o6/TCiiI62BM3XXgxuTHLtaX9Dfwr0LV7t9cHW08tSuFbQtLK0pY9KrG3eiy3X+BbLcxic++3jGShYmtk0l0ZREDu/ExLJ5uzKRnVHTI70HCdNv2ffsnc7betpP3KZ7qTSJmxzDbm3NhE7YR918peIUVxFUbkyiWckylfQ38q1C1+zdXRxtP7Uph88IyKe2JepAc6xSh2WuTnIHMkjw/K6j2uMK/dXW08dSuFKovLPwVjBEKSwF1s47ZxYWKivYdRmHVHlf4t66ONp7alUL9M5Ydi9Ds0DLVHlf4t66ONp7alcKgsGh/oCuX6BgAAACOzeozFgDA9rx586aIACBQWAB4QLSikEMAECgsADwgvBDIZfcZs2ltbgcAhQWAB0QWArfMP2M2rc3tAKCw7Jmna3M+X5sn27yfp+Z6PjWny822E7ldmtPp3FyXOwBWhhcCXhC4Ta53Nq3N7QCgsOyZTIXl6XpWisqtuQT7btv+f69f2paFikuW4nYnFIPWpzOvbiIuZnzed9H3QeGFQC67z5hNa3M7ACgseyZLYaGCEc46fCJm+75dTo2rPWEh6mY7cyc72TAxuLRFkI2BxcX4GsSoK5CPXlx4IYgtE7JNaG2tH3hctiss9ua/tgnLPUn2uapdZ23B0/GeMWPiY6EE17XDJ2qbIIP4uO34rKGN1zUew+R9xmYctm9n7301BOu6Y22WqJ0vNI5+8Na/YdE0CP8fEV4McgoAYtvCwhJhn+C65BkkSN9p3/CnfjNebVzOLuPTRmYwM4jGUBDdZxdftSgEyVcUFtmOjWUNmJ8+vs4WjIEjx/N4aEUhhwAgNp+x+Js+lgyofZQkwBLw7SJe3bQJ388wYnHgbWKsT8o+W7IUFmW/qyHHzMcZ9QuFBYCSoLCsCs06aCxtYnNjNONTvh/Q4sDbRKwPfabss+WuwiL3U8mMpWue/StCvAoDYBvqKywmGfSva470Kowwie9y6ZO5khj12UXkVZgWw+R9tsRen4m+8S/vu/bm37HYZlcE7QytbfmxdytbuvWb+QvAA1BhYbHL7hXO0V5ZmLGFY6Kk7V5ZnanoUBwGCbMliEub6P2TuYVtk7xPk2jDp3qTjPlxjLM2YRtx/2v4V2FiTKJY6uMBAJRiu8ICqkHOQGYRm/EAAB4WFBbQ0s06ZhcXKiradxgAgIcGhQUAAEBWBoVF+wNduYTCAgAAx2f1GYv2py6PKkKzQ8tUe1z34N8//vmvItKOV1qEZofKKAUUloIiNDu0TLXHdQ/+aUUhh7TjlRah2aEySgGFpaAIzQ4tU+1x3YN/rhB8+vzfwfKUTWs7accrLUKzQ2WUAgpLQRGaHVqm2uO6B/9cIaACIYsHLxqaTWs7accrLUKzQ2WUAgpLQRGaPZt++LZ59vzb5ntt3Sz91Lx9fmpOrz4q60b04XVzOr1o3v6grCuo4nFdqD345woBLxxaEdFsWttJO15pEZodKqMU9l1YsiXWMiI0ezZlGv/3716wovKxecn+l3pfOLj9dfPebU/FZeVzEMRVHp9iQj5/oE8+DpIdi+nT25+9+6nfXwYF/lUowhWCqSKi2bS2k3a80iI0O1RGKaCwFBSh2bMpy/ipYPBZB7VZ4bB6/+rUvPzQLYeFqJvtuHVrSMaV+0bLplBEY6OMd+5MbULSv9pEuEKgFRG3rLWdTbadtOOVFqHZoTJKYbvCYm/8t20i8E/AwZMks8knUtO2r2/4U2ewPU8e24jwbeMbT9h9AjeJWvptxxnEx2zj+rXJ9B3vY208+fu+I/sczDi0wiJs/hx0bTpW7qf+MQVxJTl/eIyFj7208eXVwL/KRPBikFPa8UqL0OxQGaWwbWFhidAlzcFTsUwQvB2sG09+W4jgbf5kbRK69qTs7IP4KDMD2Sf2Wiq6T60odOfBFaVunUzGoh0bSyHJuJLMTOX5i35sdqx9cW1lY0N9TbuQz5p/NYnQikIOaccrLUKzQ2WUwuYzFp8EtTYlr7F+clkmksJPplMiAhtLwO9fsRmV9J3GNDbumI23U/bZany2QQWE/JwoLJpvBTWIK2ksFjHR+aDYZC4wqn8VqXb/5upo46ldKRyrsPB+FYgIbTTroITcJmbuN39t58Yhx6ONL9aHPlP22Wq8sJC/SmGR+6lgxhKNBe+jShbN5VL9q0i1+zdXRxtP7UqhnsJibvD+NU3wKozd+MbutgvWhdvXIELayP+Xr173yVzEwY9vEJ/IqzDex7WT99mKigK3te3wdVIXX/4az58buw2148Upv7S4RmPB+zg7L4Kxfguk+leRavdvro42ntqVQkWFxdrcqxtZTKz9GSVltp17X24SW7B9q8wJY66Igd34GD4h+3f+NA43vsn4tInefnnv+7BtkvdpCnL8tVxfyLrC3dm5/0rBK6xoXGUs2Dg60Tg7f0Mb208Gqf5VpNr9m6ujjad2pbBdYXkAEZq9NskZyCzJGc8Kqj2u8G9dHW08tSsFFJaCIjR7fbJP8XOLi/nyO/8T/5Rqjyv8W1dHG0/tSgGFpaAIzQ4tU+1xhX/r6mjjqV0pDAqL9ge6comOAQAA4NisPmMBAGzPmzdviggAAoUFgAdEKwo5BACBwgLAA8ILgVx2nzGb1uZ2AFBYAHhAZCFwy/wzZtPa3A4ACsueebo25/O1ebLN+3lqrudTc7rcbLsQt0tzOp2b63KHwUJ4IeAFgdvkemfT2twOAApLjGxJuyCZfHy6nvuiQvtk/1v97KvArbl4+6VtOWbaqbjkjKvcn/G/LV63cBydbFGLjvFx4IVALrvPmE1rczsAKCwxHqawUAFgs4g2UfcTl37d7XLydl6I5trblpkd+WYG+LFo2RSKaGzEeKmd05mdwAtBbJmQbUJra/3A47JxYeFPtTY5BE+T9knXJIk24dHrGtPPvrrh24ytJ4L9sifXNvlc22TU2V3/fntSlidac3z5RN+1TeK1x9J9c9uJeF1j/s/Y5+gMguJA2/a+Gux+now/c+yuec47S3D7p093XHHMHuHbg8KLQU4BQGxYWLQn1y5xBsmRGiZh2OTI39O7pDi1XiaTIBExH3iSjSam++FP1uZY4eA7nF36psVrzH9OdJ9kGknyPgYyGbv2XLslNvYFmJlKWwT9bu1Y++LaysaG+pp2Zh/2hFYUcggAYrvC4pMWQ9pMcmgTErdryynrZZKR+yVi+8kFS6i3iy1+hPTP+RzzzTHWJ2WfLfHCQsXA+Ti3gMTsFm0sSxmLRQw6HxSbBy4wAJTgcQqLs3GkPbafbNCswyZefhyfwG2b1o355oj1oc+UfbbohYUKAds+Whjm2i0FZiyDYyhj1RG+AgAWs59XYS5JaMtT68V+PbwvIbctkHBoTJfLpU/mwgczZmpL39ol9VWY5n/yPlsoyct9BEWlg7/G8+elZa6doHbW71iIWCxs00N25ku0HwDgbrb98t4ksf51jbnfA5tN7Pzm15an1rtldqyU103uXXzWJGj8CAuWf+dPx6Kio/lGiDG4L+81/5P3aYpuX0hMEWDHMNublV1x7mzc/7l27YEiA3JsIladaJzd8UOb3QYAkIVtCwuoAjmjKIqcIQEADgcKC2ixT/Gli4v5shwzBACODgoLAACArAwKi/YHunIJhQUAAI6PLywAAABADlBYAAAAZAWFBQAAQFZQWAAAAGQFhQUAAEBWUFgAAABkBYUFAABAVlBYAAAAZAWFBQAAQEaa5v8Bhiq0LapTuugAAAAASUVORK5CYII=;" vertex="1" parent="1">
          <mxGeometry x="70" y="1140" width="406" height="118" as="geometry" />
        </mxCell>
        <mxCell id="aRsgU26TpFkdN7H3gEH3-10" value="&lt;font style=&quot;font-size: 20px;&quot;&gt;&lt;b&gt;Notice&lt;/b&gt;&lt;/font&gt;" style="text;html=1;align=center;verticalAlign=middle;whiteSpace=wrap;rounded=0;" vertex="1" parent="1">
          <mxGeometry x="60" y="700" width="90" height="30" as="geometry" />
        </mxCell>
        <mxCell id="aRsgU26TpFkdN7H3gEH3-11" value="&lt;span style=&quot;font-size: 20px;&quot;&gt;&lt;b&gt;Qna&lt;/b&gt;&lt;/span&gt;" style="text;html=1;align=center;verticalAlign=middle;whiteSpace=wrap;rounded=0;" vertex="1" parent="1">
          <mxGeometry x="69" y="880" width="51" height="30" as="geometry" />
        </mxCell>
        <mxCell id="aRsgU26TpFkdN7H3gEH3-12" value="&lt;font style=&quot;font-size: 20px;&quot;&gt;&lt;b&gt;Traffic&lt;/b&gt;&lt;/font&gt;" style="text;html=1;align=center;verticalAlign=middle;whiteSpace=wrap;rounded=0;" vertex="1" parent="1">
          <mxGeometry x="70" y="1100" width="70" height="30" as="geometry" />
        </mxCell>
      </root>
    </mxGraphModel>
  </diagram>
</mxfile>
